<svg width="72" height="68" viewBox="0 0 72 68" fill="none" xmlns="http://www.w3.org/2000/svg">
<path d="M3.33145 56.8798C3.57371 55.7125 4.57287 54.7679 5.85399 54.7679C6.86547 54.7679 7.57994 55.4897 7.57994 56.4484C7.57994 57.8526 6.42063 58.9917 4.97664 58.9917C3.99254 58.9917 3.27807 58.2967 3.27807 57.3239C3.27807 57.1857 3.29039 57.0321 3.33145 56.8798ZM0.0944412 56.8939C0.0136874 57.2548 0 57.6157 0 57.9639C0 60.3804 1.8067 62.2004 4.30324 62.2004C8.12058 62.2004 10.8046 59.3949 10.8046 55.852C10.8046 53.4201 8.99655 51.5859 6.50139 51.5859C2.92631 51.5859 0.767849 53.7119 0.0944412 56.8939Z" fill="#FF4655"/>
<path d="M18.6807 56.3794L16.7645 51.9469C16.7111 51.7806 16.5619 51.7383 16.4675 51.7383H13.5945C13.4057 51.7383 13.2838 51.8779 13.2442 52.0442L11.2335 61.7564C11.2075 61.8819 11.2472 62.0483 11.4771 62.0483H13.9449C14.1749 62.0483 14.2967 61.951 14.3364 61.7423L15.2945 57.1012L17.479 61.8255C17.52 61.9792 17.6145 62.0483 17.75 62.0483H20.3396C20.4874 62.0483 20.6229 61.9933 20.6626 61.8114L22.6732 52.0442C22.7129 51.8215 22.6458 51.7383 22.4036 51.7383H19.9344C19.7455 51.7383 19.6114 51.8779 19.5703 52.0442L18.6807 56.3794Z" fill="#FF4655"/>
<path d="M22.8503 61.7423C22.8092 61.951 22.89 62.0483 23.0789 62.0483H25.7095C25.9395 62.0483 26.0599 61.951 26.101 61.7423L28.1103 52.0442C28.1376 51.8638 27.9761 51.7383 27.8406 51.7383H25.21C25.0088 51.7383 24.8869 51.8779 24.8459 52.0442L22.8503 61.7423Z" fill="#FF4655"/>
<path d="M38.4025 53.086C37.6333 52.2528 36.838 51.5859 35.0847 51.5859C30.7952 51.5859 28.6367 54.9343 28.6367 57.9907C28.6367 60.5199 30.5515 62.2004 33.0481 62.2004C34.2744 62.2004 35.7855 61.8677 37.0269 60.8118C37.1351 60.7286 37.2295 60.6313 37.2295 60.5058C37.2295 60.4636 37.2158 60.4227 37.1884 60.3677L35.5159 58.3798C35.4762 58.3249 35.4351 58.3108 35.3817 58.3108C35.3407 58.3108 35.2873 58.3249 35.2325 58.3798C34.7603 58.7831 34.1403 58.9917 33.56 58.9917C32.5622 58.9917 31.9148 58.1712 31.9148 57.2689C31.9148 56.0043 33.2096 54.7679 34.4633 54.7679C35.1655 54.7679 35.5296 55.0174 35.7992 55.3783C35.8403 55.4347 35.8936 55.4629 35.9347 55.4629C35.9744 55.4629 36.0291 55.4347 36.0825 55.3783L38.3765 53.5583C38.4709 53.461 38.4969 53.3778 38.4969 53.3087C38.4969 53.2256 38.4572 53.1565 38.4025 53.086Z" fill="#FF4655"/>
<path d="M45.6588 55.0316H42.8133L43.4333 52.0442C43.4607 51.8638 43.2992 51.7383 43.1637 51.7383H40.5467C40.3715 51.7383 40.236 51.8638 40.1963 52.0442L38.1734 61.8114C38.1597 61.9651 38.2404 62.0483 38.4293 62.0483H41.0326C41.2612 62.0483 41.383 61.951 41.4241 61.7423L42.1919 58.0613H45.0388L44.2696 61.7423C44.2299 61.951 44.3244 62.0483 44.5132 62.0483H47.1699C47.3177 62.0483 47.4669 61.951 47.5066 61.7423L49.5172 52.016C49.5706 51.7806 49.4365 51.7383 49.2476 51.7383H46.6306C46.4418 51.7383 46.3062 51.8779 46.2802 52.0442L45.6588 55.0316Z" fill="#FF4655"/>
<path d="M57.6769 52.0442C57.6632 51.906 57.5551 51.7383 57.4073 51.7383H54.7369C54.574 51.7383 54.3851 51.892 54.3318 52.0442L48.9897 61.7423C48.8692 61.951 48.9089 62.0483 49.1115 62.0483H51.6874C51.9037 62.0483 52.0789 61.951 52.187 61.7423L52.807 60.5482H55.6799L55.8154 61.7423C55.8428 61.951 55.977 62.0483 56.1932 62.0483H58.7828C58.9717 62.0483 59.0388 61.951 59.0128 61.7423L57.6769 52.0442ZM55.3159 55.3657L55.4103 57.9908H54.1429L55.3159 55.3657Z" fill="#FF4655"/>
<path d="M67.9971 56.3794L66.0809 51.9469C66.0275 51.7806 65.8783 51.7383 65.7839 51.7383H62.911C62.7221 51.7383 62.6003 51.8779 62.5606 52.0442L60.5499 61.7564C60.5239 61.8819 60.5636 62.0483 60.7936 62.0483H63.2613C63.4913 62.0483 63.6131 61.951 63.6528 61.7423L64.6109 57.1012L66.7954 61.8255C66.8364 61.9792 66.9309 62.0483 67.0664 62.0483H69.656C69.8038 62.0483 69.9393 61.9933 69.979 61.8114L71.9896 52.0442C72.0293 51.8215 71.9622 51.7383 71.72 51.7383H69.2508C69.0619 51.7383 68.9278 51.8779 68.8868 52.0442L67.9971 56.3794Z" fill="#FF4655"/>
<path fill-rule="evenodd" clip-rule="evenodd" d="M35.4902 0C41.6754 0 47.2556 2.67442 51.2044 6.96309C49.7823 7.45511 48.4108 8.15015 47.1105 8.9044C45.2642 9.97587 43.4492 11.2546 41.7301 12.553C38.4959 11.2574 35.6886 11.6423 32.6296 13.303C31.0104 12.4318 28.9792 11.9073 27.219 12.3683L26.3787 12.5897L26.1597 13.4553C25.6108 15.6194 25.3507 18.1035 26.2692 20.197C25.6614 22.4189 25.3097 25.1568 25.8709 27.4238C22.9637 29.5751 19.8211 32.3342 18.1048 35.5626L18.0049 35.6007C15.3687 31.8957 13.8125 27.3237 13.8125 22.3752C13.8125 10.0182 23.518 0 35.4902 0ZM53.1931 9.45846C55.4994 12.8195 56.9297 16.8656 57.1405 21.2431C56.7805 20.8921 56.363 20.6002 55.9045 20.4142C55.2188 20.1378 54.4578 20.1139 53.7967 20.4748C53.0562 20.878 52.6579 21.6365 52.5717 22.4767C52.5005 23.1732 52.636 23.8231 52.7264 24.5069C52.7579 24.7493 52.8099 25.1314 52.7633 25.3725C52.6265 26.0802 52.3445 26.6991 51.7601 27.1221C51.4151 27.3716 51.0908 27.4097 50.676 27.4097C50.1915 27.4083 49.7426 27.373 49.2813 27.3871C49.8042 25.161 49.8042 22.8898 49.1061 20.6609C50.1121 18.4855 50.9566 15.8252 50.3571 13.4553L50.1217 12.522L49.9369 12.4868C51.0196 11.4759 52.105 10.4651 53.1931 9.45846ZM55.3789 31.2867C54.1019 34.3206 52.1912 37.0049 49.8206 39.1633C49.7001 39.1337 49.5797 39.1097 49.4579 39.09C49.41 38.9222 49.3621 38.7531 49.3142 38.5853C49.9191 37.0613 50.0834 35.4668 49.77 33.8539C50.0683 33.438 50.4078 33.1674 50.9498 33.0066C51.4795 32.8502 52.0434 32.7839 52.5813 32.6542C53.4354 32.4498 54.206 32.1283 54.9314 31.6151C55.0819 31.5094 55.2311 31.3994 55.3789 31.2867Z" fill="#751729"/>
<path fill-rule="evenodd" clip-rule="evenodd" d="M34.757 47.1289C47.0247 47.1289 56.9684 48.0044 56.9684 49.0843C56.9684 50.0134 49.6226 50.7902 39.7692 50.9904C39.7966 51.6164 39.7514 52.2649 39.7254 52.9077C39.0739 55.1987 36.2762 54.7645 36.2051 53.2856C34.9048 55.2114 32.4192 53.5859 32.9174 51.6854C31.9114 52.0393 31.3475 51.6897 31.1751 51.0158C20.6113 50.8649 12.5469 50.0571 12.5469 49.0843C12.5469 48.0044 22.4906 47.1289 34.757 47.1289Z" fill="#999999"/>
<path fill-rule="evenodd" clip-rule="evenodd" d="M47.6559 13.2207C48.1117 13.232 48.5661 13.28 49.0178 13.366L49.3107 13.4209L49.386 13.7184C49.9485 15.9445 48.9891 18.5907 48.0214 20.5927C48.9959 23.3446 48.7714 26.1107 47.827 28.7612C48.0857 28.6385 48.3636 28.5454 48.6633 28.4891C49.3518 28.3565 49.9855 28.4425 50.6726 28.4439C51.2994 28.4468 51.8086 28.3495 52.3328 27.9702C53.1321 27.3922 53.5564 26.552 53.744 25.575C53.8165 25.1971 53.7672 24.7474 53.718 24.3682C53.6427 23.8028 53.5085 23.1529 53.566 22.5862C53.6167 22.0941 53.8233 21.6303 54.2627 21.3906C54.6624 21.1721 55.1277 21.213 55.537 21.3779C55.9859 21.5598 56.3869 21.8925 56.7018 22.2661C57.5558 23.2798 57.8693 24.6487 57.7324 25.9669C57.5148 28.0562 55.9599 29.6338 54.3626 30.7631C53.7371 31.2058 53.0884 31.4708 52.352 31.6485C51.7977 31.781 51.2187 31.8515 50.6726 32.0136C49.7377 32.2885 49.1779 32.8285 48.6948 33.6546C49.1136 35.3224 48.9466 36.9522 48.2472 38.5171C48.3937 39.0317 48.5401 39.5462 48.6866 40.0608C49.4845 40.0679 50.2332 40.3047 50.923 40.7516C51.8018 41.3226 52.3205 42.8776 52.5723 43.8673C52.7612 44.6103 52.9022 45.4153 52.9446 46.1837C52.9706 46.6616 52.9953 47.5004 52.5901 47.8317C52.3711 48.0108 52.1289 48.1532 51.8647 48.2505C50.9367 48.5945 49.9212 48.3435 49.0356 47.9389C48.38 48.8764 47.0469 49.274 46.0053 49.4164C45.1019 49.5404 43.9125 49.539 43.0393 49.2402C42.0086 48.8863 41.4009 48.0954 41.0738 47.1198C40.3894 47.7838 39.6394 48.3647 38.8359 48.868C39.2726 49.7914 39.4656 50.7811 39.419 51.8159C39.3999 52.7309 38.9359 53.6501 37.9805 53.784C37.4344 53.8601 36.9047 53.6247 36.5406 53.2046C36.4024 53.0452 36.2929 52.8662 36.208 52.6759C36.0862 52.8126 35.9534 52.9381 35.807 53.0467C35.3676 53.3723 34.801 53.5486 34.2713 53.361C33.81 53.1975 33.5117 52.8056 33.3638 52.3389C33.2516 51.9837 33.2256 51.5931 33.2461 51.2068C32.6412 51.3253 31.9842 51.2957 31.6105 50.7642C31.0507 49.9662 31.6488 48.7411 32.1265 48.0587C32.7575 47.1607 34.0591 46.5319 35.0857 46.1259C35.5154 44.2367 36.3901 42.2771 37.3153 40.5162C36.5105 40.8743 35.7194 41.2874 34.9611 41.7005C33.305 42.607 31.6858 43.6065 30.0953 44.6329C29.4397 45.318 28.5939 45.7875 27.7644 45.3293C26.6065 46.2006 25.5471 47.3538 25.2542 48.844L25.1803 49.219L24.8094 49.2303C21.868 49.3219 18.9267 49.4136 15.9839 49.5052L15.4925 49.5207L15.5035 49.0132C15.5432 47.0535 16.6217 45.8467 18.3655 45.2729C18.965 44.5934 20.179 44.3002 21.0523 44.1479C21.6956 43.1314 22.5743 41.7766 23.2176 40.7573C23.4201 39.9339 23.7514 39.5124 24.136 38.8963C23.3599 39.2234 21.946 39.8409 21.1686 40.168C20.4172 41.7075 19.2223 42.6309 17.5141 42.4082C16.2823 43.3457 15.0518 44.2861 13.82 45.2236C13.6065 45.3871 13.3491 45.4703 13.085 45.4633C12.5717 45.4477 12.0954 45.1023 11.8833 44.6244C11.6177 44.0224 11.8244 43.3993 12.2761 42.9665C12.9782 42.2926 13.6817 41.6201 14.3839 40.9462C14.3291 40.6628 14.3182 40.3738 14.3579 40.0834C14.6303 38.1082 17.1555 36.9888 18.8062 36.4024C20.4911 32.9779 24.0183 30.0145 27.0431 27.8349C26.2506 25.6694 26.5928 22.6256 27.3388 20.1021C26.3328 18.1847 26.6147 15.7401 27.1266 13.7184L27.1964 13.4421L27.4647 13.373C29.1509 12.9303 31.1862 13.6 32.622 14.4853C35.9781 12.5313 38.7045 12.3029 41.8676 13.7339C43.5498 12.4482 45.7206 10.8974 47.5998 9.80757C49.0548 8.96168 50.6384 8.17782 52.2507 7.71258L54.1847 7.1543L52.6887 8.53592C51.0052 10.0909 49.3312 11.6558 47.6559 13.2207Z" fill="black"/>
<path fill-rule="evenodd" clip-rule="evenodd" d="M29.3665 17.8503C30.0262 16.9184 31.0391 15.9273 32.4078 14.877C30.5846 13.8182 28.975 13.4728 27.5803 13.8379C27.3873 14.5993 27.2559 15.3126 27.1875 15.9766C27.9006 14.6119 28.626 15.2365 29.3665 17.8503Z" fill="#E0AE79"/>
<path fill-rule="evenodd" clip-rule="evenodd" d="M46.3677 13.7729C45.2673 14.0661 44.4077 14.3664 43.7891 14.6724C45.2686 15.7156 46.2158 16.8971 46.6319 18.2181C47.5188 15.9694 48.3031 15.342 48.9861 16.3345C49.1366 15.4012 49.1188 14.5694 48.9341 13.8392C48.0909 13.6784 47.2355 13.6559 46.3677 13.7729Z" fill="#E0AE79"/>
<path fill-rule="evenodd" clip-rule="evenodd" d="M52.3783 8.17578C48.3679 9.70966 45.6853 11.4296 42.2539 14.0519C42.5892 14.1802 43.2668 14.4396 43.5952 14.5848C44.3261 14.0209 45.8481 13.6275 46.6187 13.5387C48.3036 11.9668 50.6879 9.7435 52.3783 8.17578Z" fill="#999999"/>
<path fill-rule="evenodd" clip-rule="evenodd" d="M46.8458 20.0066C46.4858 15.4924 40.833 12.9293 37.195 13.3494C33.8704 13.7329 30.5472 16.1225 28.1875 19.9756C31.4423 22.3497 36.3724 22.6147 37.8137 18.202C39.9475 21.5828 42.7068 22.6951 46.8458 20.0066Z" fill="#FF4655"/>
<path fill-rule="evenodd" clip-rule="evenodd" d="M32.1567 24.6388C33.8498 23.3841 35.6168 23.4983 37.8724 24.9053C35.755 20.8224 31.2013 23.1077 27.7617 20.3262C28.661 22.8836 31.0576 24.1397 32.1567 24.6388Z" fill="#999999"/>
<path fill-rule="evenodd" clip-rule="evenodd" d="M44.7737 24.5965C43.39 23.463 40.22 23.1768 38.375 24.9292C40.2173 20.8083 44.4288 23.0443 47.0376 20.4629C46.6434 22.7722 45.7318 24.0791 44.7737 24.5965Z" fill="#999999"/>
<path fill-rule="evenodd" clip-rule="evenodd" d="M38.1014 24.6527C37.2665 23.3289 36.6848 22.4675 34.8945 21.9656C36.3837 21.3185 37.4308 20.3612 37.8865 18.9824C38.8515 20.615 39.863 21.3946 41.0113 21.8852C39.8808 22.3885 38.5558 23.4177 38.1014 24.6527Z" fill="#999999"/>
<path fill-rule="evenodd" clip-rule="evenodd" d="M31.8077 25.0039C29.8217 24.0876 28.4187 22.7257 27.6002 20.9141C26.2753 25.4283 27.8138 31.8768 31.3341 34.0521C29.3604 30.9604 29.5192 27.9448 31.8077 25.0039Z" fill="#FF4655"/>
<path fill-rule="evenodd" clip-rule="evenodd" d="M47.5102 20.5645C47.0694 22.5988 46.1894 24.0834 44.8672 25.0209C45.9786 27.1793 46.1962 29.2785 45.5187 31.3171C46.1346 30.8138 46.8313 30.116 47.3405 28.7217C48.4039 25.8146 48.4601 23.0951 47.5102 20.5645Z" fill="#FF4655"/>
<path fill-rule="evenodd" clip-rule="evenodd" d="M41.7503 24.0099C39.6548 24.0197 38.5229 25.4281 38.2368 25.4253C37.6374 25.4225 36.2686 23.9506 34.3388 24.1931C32.6484 24.406 31.5808 25.579 30.8896 27.1129C29.9904 29.1078 30.0424 31.1943 31.0265 32.7972C31.4918 32.1727 32.5594 31.8569 34.2265 31.8498C32.6676 32.0416 31.6725 32.4645 31.2414 33.1173C31.3728 33.3005 31.5192 33.4754 31.678 33.6431C32.1515 33.1807 32.9522 32.7817 34.0787 32.4462C33.0522 32.8889 32.3281 33.364 31.9079 33.8701C32.1036 34.052 32.3158 34.2226 32.5457 34.3791C32.9071 34.0492 33.3738 33.7122 33.9459 33.3682C33.4395 33.7587 33.0316 34.1337 32.7196 34.4947C32.9413 34.6342 33.1767 34.7625 33.4286 34.8781C36.0921 36.1047 38.976 36.1864 41.6874 34.5637L42.0788 34.1901C41.8708 33.8532 41.6094 33.4951 41.2918 33.1173C41.6463 33.4542 41.9474 33.7757 42.1938 34.0802C42.3977 33.887 42.6003 33.6939 42.8029 33.4993C42.4634 33.0792 41.9816 32.6407 41.3548 32.1854C42.0446 32.5731 42.5852 32.9565 42.9767 33.333C43.1615 33.1567 43.3463 32.9805 43.5297 32.8029C43.0766 32.3461 42.3444 31.9358 41.3356 31.5707C42.4484 31.8301 43.2559 32.1671 43.7582 32.5829C44.2564 32.1022 44.7519 31.62 45.2433 31.1337C45.8154 29.3474 45.6744 27.8925 45.2761 26.6857C44.6575 24.8092 43.8157 24 41.7503 24.0099ZM41.9639 27.127C41.2535 27.127 40.6759 28.0166 40.6759 29.1134C40.6759 30.2102 41.2535 31.0998 41.9639 31.0998C42.3909 31.0998 42.7687 30.7798 43.0041 30.2878C43.6515 30.2511 43.9786 29.8535 43.9854 29.0951C43.787 29.5476 43.5091 29.8141 43.1492 29.8958C43.2162 29.6548 43.2532 29.3911 43.2532 29.1134L43.2518 29.0753C43.735 28.9583 43.9786 28.572 43.9854 27.9179C43.802 28.3394 43.5475 28.5988 43.2244 28.6989C43.1875 28.4254 43.1136 28.1745 43.0109 27.9545C43.3244 27.7769 43.4845 27.4244 43.49 26.8972C43.3244 27.2736 43.1054 27.5203 42.8289 27.6401C42.6003 27.3215 42.2965 27.127 41.9639 27.127ZM33.6448 27.3511C34.3565 27.3511 34.9328 28.2407 34.9328 29.3376C34.9328 30.4358 34.3565 31.3254 33.6448 31.3254C33.2178 31.3254 32.84 31.0054 32.606 30.5119C31.9586 30.4753 31.6314 30.0777 31.6246 29.3192C31.8217 29.7718 32.1009 30.0396 32.4609 30.12C32.3938 29.8803 32.3569 29.6153 32.3569 29.3376V29.2995C31.8751 29.1825 31.6301 28.7976 31.6246 28.1434C31.808 28.5636 32.0612 28.823 32.3842 28.9231C32.4226 28.651 32.4965 28.3986 32.5977 28.1801C32.2843 28.001 32.1242 27.6486 32.1201 27.1213C32.2843 27.4977 32.5047 27.7459 32.7812 27.8643C33.0097 27.5457 33.3122 27.3511 33.6448 27.3511ZM36.3549 31.4932C35.9716 30.9123 35.7691 30.4851 35.7472 30.2088C35.9593 32.1374 36.5862 33.2738 37.6278 33.6178C36.8982 35.6408 34.9095 35.1714 34.993 32.9453C34.7699 35.7226 37.0926 35.786 37.8208 33.8617C38.5489 35.786 40.8716 35.7226 40.6485 32.9453C40.732 35.1714 38.7433 35.6408 38.0137 33.6178C39.0553 33.2738 39.6822 32.1374 39.8944 30.2088C39.8725 30.4851 39.6699 30.9123 39.2866 31.4932C38.1123 31.293 37.5292 31.293 36.3549 31.4932Z" fill="#E0AE79"/>
<path d="M34.5939 29.3373C34.5939 29.5319 34.5706 29.7194 34.5214 29.8984C34.4735 30.0789 34.405 30.2382 34.3161 30.3749C34.2257 30.5131 34.1231 30.6188 34.0067 30.6935C33.8904 30.7683 33.7686 30.8049 33.6427 30.8049C33.5167 30.8049 33.3949 30.7683 33.2786 30.6935C33.1622 30.6188 33.0596 30.5131 32.9706 30.3749C32.8803 30.2382 32.8119 30.0789 32.7639 29.8984C32.716 29.7194 32.6914 29.5319 32.6914 29.3373C32.6914 29.1427 32.716 28.9552 32.7639 28.7762C32.8119 28.5957 32.8803 28.4378 32.9706 28.2997C33.0596 28.1629 33.1622 28.0572 33.2786 27.9825C33.3949 27.9077 33.5167 27.8711 33.6427 27.8711C33.7686 27.8711 33.8904 27.9077 34.0067 27.9825C34.1231 28.0572 34.2257 28.1629 34.3161 28.2997C34.405 28.4378 34.4735 28.5957 34.5214 28.7762C34.5706 28.9552 34.5939 29.1427 34.5939 29.3373Z" fill="#E0E0E0"/>
<path d="M42.9142 29.1141C42.9142 29.3087 42.891 29.4962 42.8417 29.6752C42.7938 29.8557 42.7253 30.0136 42.6364 30.1517C42.5474 30.2885 42.4434 30.3956 42.3271 30.4689C42.2107 30.5437 42.0903 30.5817 41.963 30.5817C41.8371 30.5817 41.7166 30.5437 41.5989 30.4689C41.4826 30.3956 41.3799 30.2885 41.2909 30.1517C41.202 30.0136 41.1335 29.8557 41.0843 29.6752C41.0364 29.4962 41.0117 29.3087 41.0117 29.1141C41.0117 28.9195 41.0364 28.732 41.0843 28.553C41.1335 28.3725 41.202 28.2146 41.2909 28.0765C41.3799 27.9397 41.4826 27.8326 41.5989 27.7579C41.7166 27.6845 41.8371 27.6465 41.963 27.6465C42.0903 27.6465 42.2107 27.6845 42.3271 27.7579C42.4434 27.8326 42.5474 27.9397 42.6364 28.0765C42.7253 28.2146 42.7938 28.3725 42.8417 28.553C42.891 28.732 42.9142 28.9195 42.9142 29.1141Z" fill="#E0E0E0"/>
<path fill-rule="evenodd" clip-rule="evenodd" d="M41.965 27.9062C41.9377 27.9062 41.9089 27.9091 41.8815 27.9161C41.4367 28.0148 41.2656 28.7183 41.2656 29.1145C41.2656 29.5106 41.4367 30.2141 41.8815 30.3128C41.9089 30.3199 41.9377 30.3227 41.965 30.3227C41.9938 30.3227 42.0225 30.3199 42.0499 30.3128C42.4947 30.2141 42.6658 29.5106 42.6658 29.1145C42.6658 28.7183 42.4947 28.0148 42.0499 27.9161C42.0225 27.9091 41.9938 27.9062 41.965 27.9062Z" fill="#FF4655"/>
<path d="M34.3469 29.3391C34.3469 29.4998 34.3291 29.6535 34.2935 29.8015C34.2579 29.9495 34.2073 30.0806 34.1416 30.1934C34.0759 30.3076 34.0006 30.395 33.9144 30.4556C33.8281 30.5177 33.7392 30.5473 33.6461 30.5473C33.553 30.5473 33.4641 30.5177 33.3778 30.4556C33.293 30.395 33.2163 30.3076 33.1506 30.1934C33.0849 30.0806 33.0343 29.9495 32.9987 29.8015C32.9631 29.6535 32.9453 29.4998 32.9453 29.3391C32.9453 29.1798 32.9631 29.0247 32.9987 28.8767C33.0343 28.7286 33.0849 28.5989 33.1506 28.4847C33.2163 28.3719 33.293 28.2845 33.3778 28.2225C33.4641 28.1619 33.553 28.1309 33.6461 28.1309C33.7392 28.1309 33.8281 28.1619 33.9144 28.2225C34.0006 28.2845 34.0759 28.3719 34.1416 28.4847C34.2073 28.5989 34.2579 28.7286 34.2935 28.8767C34.3291 29.0247 34.3469 29.1798 34.3469 29.3391Z" fill="#FF4655"/>
<path fill-rule="evenodd" clip-rule="evenodd" d="M30.4903 34.025C29.4898 33.189 27.9404 31.4774 27.1835 28.3223C25.6588 29.4247 24.5255 30.358 23.3867 31.4112C23.8138 32.7519 24.7855 34.5734 26.3021 36.8756C27.397 35.728 28.6631 34.947 30.4903 34.025Z" fill="#FF4655"/>
<path fill-rule="evenodd" clip-rule="evenodd" d="M19.7133 37.0737L19.8584 35.4919C19.5874 35.919 19.3547 36.3406 19.1562 36.7579L19.7133 37.0737ZM20.1924 38.7062C20.4086 39.0869 20.6208 39.4478 20.8274 39.7904L21.9197 39.3294L21.9429 39.0728L20.2457 38.1099L20.1924 38.7062ZM22.0073 38.3735L22.1688 36.6028L20.4716 35.6399L20.3101 37.412L22.0073 38.3735ZM22.2317 35.9035L22.4124 33.9143L21.4612 33.3743C21.1423 33.7366 20.8493 34.0976 20.5797 34.4542L20.5345 34.9406L22.2317 35.9035ZM22.4767 33.215L22.5698 32.1957C22.3371 32.4269 22.114 32.6581 21.9005 32.8879L22.4767 33.215ZM22.9366 38.9008L24.2232 38.358L24.2752 37.7969L22.7642 36.9412L22.6027 38.7119L22.9366 38.9008ZM24.3382 37.0991L24.5202 35.1084L23.0092 34.2512L22.8271 36.2419L24.3382 37.0991ZM24.1917 34.1878C23.8769 33.5703 23.5471 32.8851 23.2022 32.1309L23.0721 33.5534L24.1917 34.1878ZM25.3634 37.6799L25.9711 37.1794C25.6262 36.7663 25.4907 36.5196 25.0814 35.8232L24.935 37.436L25.3634 37.6799Z" fill="#4D0E1A"/>
<path fill-rule="evenodd" clip-rule="evenodd" d="M14.9033 41.1044C15.5891 39.7989 16.5608 39.555 17.8173 40.3742C17.8858 40.8803 17.7434 41.3892 17.3917 41.8996C18.8685 42.1646 19.9895 41.5147 20.7518 39.9484C19.999 39.149 19.4091 38.117 18.9835 36.8496C15.7588 37.993 14.3983 39.4127 14.9033 41.1044Z" fill="#E0AE79"/>
<path fill-rule="evenodd" clip-rule="evenodd" d="M17.5532 40.5877C16.2898 39.9138 15.819 40.1013 14.9047 41.1037C13.6907 42.2682 12.9201 43.0055 12.5957 43.3171C11.6335 44.2405 12.8174 45.3867 13.5428 44.8341C16.1092 42.8772 17.393 41.8988 17.393 41.8988C17.6298 41.2686 17.6202 41.0938 17.5532 40.5877Z" fill="#141414"/>
<path fill-rule="evenodd" clip-rule="evenodd" d="M37.9648 39.7245C38.8737 38.0313 39.7866 36.6596 40.6626 35.7672C36.6468 36.8936 33.7478 36.0097 31.1596 34.2305C28.2949 35.1863 25.9886 37.6394 24.8977 38.8476C23.8835 39.9698 23.607 40.8157 24.0669 41.3839C25.5273 42.8783 26.7578 43.9977 27.757 44.7421C28.3455 45.2425 29.0271 45.079 29.8005 44.2543C33.5371 41.8392 35.9953 40.428 37.9648 39.7245Z" fill="#FF4655"/>
<path fill-rule="evenodd" clip-rule="evenodd" d="M27.4983 44.9288C26.3034 44.0195 24.9675 42.7647 23.4907 41.166C22.0494 43.4485 21.3281 44.589 21.3281 44.589C23.321 45.0233 24.7239 45.9848 25.4042 47.1634C25.8709 46.3725 26.5689 45.6267 27.4983 44.9288Z" fill="#4D0E1A"/>
<path fill-rule="evenodd" clip-rule="evenodd" d="M18.6328 45.6909C21.2197 45.5076 23.2276 46.5283 24.6579 48.7516C24.7482 48.7488 24.7934 48.7474 24.7934 48.7474C24.8865 48.2751 25.0507 47.8183 25.2861 47.3756C24.3335 45.7825 22.7732 44.8986 20.6051 44.7266C19.5841 44.9564 18.9271 45.2778 18.6328 45.6909Z" fill="#FF4655"/>
<path fill-rule="evenodd" clip-rule="evenodd" d="M24.3316 48.7609C23.0765 46.6617 21.0535 45.6805 18.2613 45.8172C16.7653 46.3882 16.0016 47.4568 15.9688 49.0217C20.506 48.8808 23.2941 48.7934 24.3316 48.7609Z" fill="#4D0E1A"/>
<path fill-rule="evenodd" clip-rule="evenodd" d="M46.8736 30.3301C46.5985 30.7869 46.2563 31.0943 46.2344 31.3424C47.2021 31.8372 47.9713 32.3814 48.308 33.3824C49.9573 30.3767 51.8105 31.9824 54.0976 30.3654C56.0453 28.9894 57.1006 27.5049 57.2662 25.9146C57.6426 22.3041 54.2496 20.5065 54.0306 22.6368C53.9457 23.4657 54.3837 24.7177 54.2017 25.6693C53.9731 26.8592 53.4393 27.7586 52.6003 28.3649C50.6252 29.7944 49.0621 27.76 46.8736 30.3301Z" fill="#E0AE79"/>
<path fill-rule="evenodd" clip-rule="evenodd" d="M42.9009 43.6455C44.3462 42.2963 47.508 39.4231 48.1157 37.5523C49.368 33.6979 46.4267 30.2607 44.0985 32.8449C42.4478 34.6777 39.9869 36.5386 38.7852 39.6261C40.4358 41.4702 41.9072 42.8405 42.9009 43.6455Z" fill="#FF4655"/>
<path fill-rule="evenodd" clip-rule="evenodd" d="M36.4544 46.7231L36.1834 44.965L35.9192 44.896C35.7358 45.45 35.5948 45.9745 35.4922 46.4679L36.4544 46.7231ZM37.2387 47.7057C37.6041 48.0187 37.9285 48.3458 38.2132 48.6855C38.5198 48.5079 38.8154 48.3204 39.1015 48.1216L39.096 48.085L37.2209 47.5901L37.2387 47.7057ZM38.9892 47.3927L38.7169 45.6347L36.8417 45.1399L37.1127 46.8965L38.9892 47.3927ZM38.6101 44.9425L38.3049 42.9687L36.8335 42.5796C36.7322 42.801 36.6378 43.0195 36.5475 43.2338L36.735 44.4462L38.6101 44.9425ZM38.1981 42.2751L37.9312 40.5481C37.6397 41.0951 37.3509 41.4786 37.1086 41.9875L38.1981 42.2751ZM39.7995 47.6056C40.2539 47.2461 40.6796 46.8584 41.0765 46.4453L41.0464 46.2508L39.3766 45.8095L39.6476 47.5661L39.7995 47.6056ZM40.9397 45.5572L40.6344 43.5834L38.9646 43.1421L39.2685 45.1159L40.9397 45.5572ZM40.5263 42.8898L40.3744 41.9043C39.7461 41.2502 39.3547 40.823 38.684 39.9785L38.8565 42.4485L40.5263 42.8898ZM41.7034 45.7588C42.1482 45.2357 42.5027 44.6972 42.7669 44.1473L41.2928 43.7582L41.598 45.7306L41.7034 45.7588ZM41.7499 43.214C41.5433 43.035 41.3339 42.8461 41.1217 42.6459L41.186 43.0646L41.7499 43.214Z" fill="#4D0E1A"/>
<path fill-rule="evenodd" clip-rule="evenodd" d="M38.5392 49.3554C37.7631 48.3304 36.6367 47.4169 35.1585 46.6133C33.8199 47.1532 32.9357 47.7284 32.5073 48.3403C31.5013 49.7727 31.4657 51.3926 33.8007 50.5495C33.1971 53.7385 35.7347 53.5045 36.4369 51.3136C36.3493 53.8062 38.906 53.9697 38.9539 51.8028C38.9922 50.94 38.854 50.1237 38.5392 49.3554Z" fill="#E0AE79"/>
<path fill-rule="evenodd" clip-rule="evenodd" d="M48.8424 47.3104C49.0176 45.1294 48.8492 42.8765 48.3387 40.5545C48.2005 40.0696 48.0622 39.5846 47.924 39.0996C47.0357 40.2754 45.4302 41.8981 43.1075 43.9663C42.8502 45.4762 41.4418 46.7309 41.4691 46.824C41.7703 47.8419 42.3465 48.4932 43.1855 48.7808C44.6582 49.2869 48.1622 49.0219 48.8424 47.3104Z" fill="#FF4655"/>
<path fill-rule="evenodd" clip-rule="evenodd" d="M52.2999 47.4539C49.9635 46.897 49.0478 44.6314 49.5556 40.6586C49.2792 40.5867 48.9972 40.5472 48.707 40.543C49.1149 43.106 49.2093 45.3871 48.9904 47.3862C50.0757 47.929 50.9818 48.0658 51.7072 47.7965C51.9208 47.7175 52.1179 47.6033 52.2999 47.4539Z" fill="#4D0E1A"/>
<path fill-rule="evenodd" clip-rule="evenodd" d="M52.3012 47.453C50.8764 46.0757 50.4288 44.0582 50.9572 41.4021C50.8668 41.3034 50.7724 41.2217 50.6752 41.1596C50.4384 41.0045 50.1948 40.8791 49.9457 40.7832C49.1833 44.1484 49.9689 46.3717 52.3012 47.453Z" fill="#FF4655"/>
<path fill-rule="evenodd" clip-rule="evenodd" d="M51.289 41.8496C50.8291 43.8459 51.1658 45.7139 52.2991 47.4536C52.7781 47.0617 52.3059 43.5061 51.289 41.8496Z" fill="#751729"/>
<path d="M33.5617 28.7393C33.5617 28.8323 33.5288 28.9113 33.4659 28.9761C33.4015 29.0424 33.3249 29.0748 33.2359 29.0748C33.1456 29.0748 33.0689 29.0424 33.0046 28.9761C32.9416 28.9113 32.9102 28.8323 32.9102 28.7393C32.9102 28.6462 32.9416 28.5673 33.0046 28.501C33.0689 28.4362 33.1456 28.4023 33.2359 28.4023C33.3249 28.4023 33.4015 28.4362 33.4659 28.501C33.5288 28.5673 33.5617 28.6462 33.5617 28.7393Z" fill="#E0E0E0"/>
<path d="M41.8429 28.5987C41.8429 28.6917 41.8114 28.7707 41.7471 28.8369C41.6841 28.9018 41.6075 28.9342 41.5172 28.9342C41.4268 28.9342 41.3502 28.9018 41.2872 28.8369C41.2229 28.7707 41.1914 28.6917 41.1914 28.5987C41.1914 28.5056 41.2229 28.4267 41.2872 28.3604C41.3502 28.2956 41.4268 28.2617 41.5172 28.2617C41.6075 28.2617 41.6841 28.2956 41.7471 28.3604C41.8114 28.4267 41.8429 28.5056 41.8429 28.5987Z" fill="#E0E0E0"/>
<path fill-rule="evenodd" clip-rule="evenodd" d="M27.6021 20.9141C27.1915 25.7652 28.2413 28.7921 29.5005 29.7804C29.3664 28.2493 30.2273 26.7 31.8096 25.0039C29.8236 24.0876 28.4206 22.7257 27.6021 20.9141Z" fill="#ED496A"/>
<path fill-rule="evenodd" clip-rule="evenodd" d="M44.8672 25.0209C45.9101 26.1642 46.4727 27.3034 46.5562 28.4369C47.5553 25.6849 47.8743 23.0598 47.5102 20.5645C47.0694 22.5988 46.1894 24.0834 44.8672 25.0209Z" fill="#ED496A"/>
<path fill-rule="evenodd" clip-rule="evenodd" d="M32.6191 15.1552C27.1812 21.9054 35.039 21.1384 37.8133 18.2018C39.7939 19.6652 42.3451 21.2526 44.6076 19.4255C45.8148 18.4499 45.2646 16.8611 42.957 14.6575C41.1037 13.6227 38.922 13.1504 37.1947 13.3492C35.6371 13.5297 34.0781 14.15 32.6191 15.1552Z" fill="#ED496A"/>
<path fill-rule="evenodd" clip-rule="evenodd" d="M27.5781 13.8379C28.7415 14.3948 29.4957 15.2308 29.8379 16.346C30.4839 15.6679 31.3393 15.1787 32.4056 14.877C30.5824 13.8182 28.9728 13.4728 27.5781 13.8379Z" fill="#F7DCBE"/>
<path fill-rule="evenodd" clip-rule="evenodd" d="M46.662 16.3317C46.7085 15.6917 47.4668 14.8613 48.9341 13.8392C48.0909 13.6784 47.2355 13.6559 46.3677 13.7729C45.2673 14.0661 44.4077 14.3664 43.7891 14.6724C43.8739 14.7316 43.956 14.7908 44.0368 14.8514C45.0811 15.0276 45.9571 15.5211 46.662 16.3317Z" fill="#F7DCBE"/>
<path fill-rule="evenodd" clip-rule="evenodd" d="M35.7525 30.258C35.7511 30.241 35.7484 30.2241 35.747 30.2086C35.7498 30.2255 35.7511 30.241 35.7525 30.258C36.0386 30.7782 36.3684 31.0756 36.7448 31.1475C37.4689 30.9826 38.1724 30.9826 38.8964 31.1475C39.2728 31.0756 39.6027 30.7782 39.8888 30.258C39.8901 30.241 39.8915 30.2255 39.8942 30.2086C39.8929 30.2241 39.8901 30.241 39.8888 30.258C39.8258 32.1697 39.3714 33.3722 38.5242 33.8657C38.4612 34.1462 38.5269 34.4127 38.7226 34.6636C39.589 35.3079 40.7114 34.6298 40.6484 32.9451C40.7743 33.6796 40.8058 34.1702 40.7456 34.4155C41.1795 34.2435 41.3629 33.8107 41.2917 33.1171C41.7256 33.196 42.0472 33.3285 42.2553 33.5132C42.0746 33.0917 41.7735 32.649 41.3547 32.1852C41.7694 32.1838 42.1978 32.2951 42.6399 32.5207C42.2854 32.1753 41.8501 31.8595 41.3355 31.5705C42.3374 31.445 43.2216 31.5423 43.9881 31.8637C45.5648 30.2326 45.5785 27.8176 44.0278 24.6187C43.6021 24.2874 43.0669 24.0985 42.3661 24.0336C41.2807 24.0181 40.0886 24.4495 39.2386 25.3927C38.4201 26.3006 37.8822 26.1822 37.254 25.5111C36.4861 24.6906 35.1558 24.2789 33.8883 24.2761C33.2437 24.4326 32.6975 24.7413 32.2363 25.1601C30.3789 27.9698 30.071 30.2805 31.3124 32.0921C31.9817 31.82 32.9535 31.7383 34.2264 31.8496C33.2396 32.0287 32.4703 32.4093 31.9201 32.9944C32.3814 32.711 33.1013 32.5278 34.0786 32.446C33.3231 32.8464 32.8303 33.3299 32.6004 33.8953C33.037 33.6119 33.4859 33.4357 33.9458 33.368C33.2313 34.3915 33.7693 35.0316 35.5623 35.2868C34.9792 35.0386 34.7903 34.259 34.9929 32.9451C34.9258 34.713 36.1672 35.3728 37.0459 34.5565C37.1158 34.3746 37.1596 34.1899 37.176 34.0038C36.2316 33.3779 35.7566 32.1302 35.7525 30.258ZM40.6758 29.1132C40.6758 28.0163 41.2534 27.1267 41.9637 27.1267C42.2963 27.1267 42.6002 27.3213 42.8288 27.6399C43.1052 27.5201 43.3242 27.2734 43.4898 26.8969C43.6021 27.365 43.5309 27.7922 43.275 28.1771C43.4885 28.225 43.7253 28.139 43.9853 27.9177C44.1482 28.5619 43.9415 29.061 43.3639 29.4149C43.5761 29.4135 43.7828 29.3063 43.9853 29.0949C44.1099 29.8872 43.8512 30.3355 43.2079 30.4398C42.9889 31.0108 42.5742 31.2307 41.9637 31.0996C41.2534 31.0996 40.6758 30.21 40.6758 29.1132ZM33.6447 27.3509C34.3564 27.3509 34.9327 28.2405 34.9327 29.3373C34.9327 30.4356 34.3564 31.3252 33.6447 31.3252C33.0343 31.4549 32.6195 31.235 32.4005 30.664C31.7586 30.5611 31.4999 30.1127 31.6245 29.319C31.8257 29.5319 32.0337 29.6376 32.2459 29.6405C31.6683 29.2852 31.4602 28.7861 31.6245 28.1432C31.8832 28.3632 32.12 28.4492 32.3335 28.4026C32.0775 28.0163 32.0063 27.5892 32.12 27.1211C32.2842 27.4975 32.5046 27.7457 32.781 27.8641C33.0096 27.5455 33.3121 27.3509 33.6447 27.3509Z" fill="#F7DCBE"/>
<path fill-rule="evenodd" clip-rule="evenodd" d="M27.1835 28.3223C25.6588 29.4247 24.5255 30.358 23.3867 31.4112C24.906 34.8427 26.4732 35.7097 28.091 34.0095C28.5276 33.5513 26.8496 30.8656 27.1835 28.3223Z" fill="#ED496A"/>
<path fill-rule="evenodd" clip-rule="evenodd" d="M14.9033 41.1044C15.3153 39.4803 16.32 38.9235 17.7612 39.7806C18.748 40.3685 18.3785 42.1688 20.0866 40.1105C19.5008 39.6284 19.1327 38.54 18.9835 36.8496C15.7588 37.993 14.3983 39.4127 14.9033 41.1044Z" fill="#F7DCBE"/>
<path fill-rule="evenodd" clip-rule="evenodd" d="M35.2363 47.0506C35.0214 46.9815 34.7121 46.9618 34.307 46.9928C34.2153 47.0379 34.1263 47.0844 34.0401 47.1295C33.3133 47.5172 32.8028 47.9204 32.5071 48.342C32.4045 48.4872 32.3128 48.6352 32.2306 48.7832C31.7666 50.4849 32.7288 50.9262 34.2303 49.8787C33.4036 52.8111 35.1734 53.3708 36.5695 50.9628C36.8008 53.172 38.2379 53.6062 38.9538 51.8045C38.9921 50.9417 38.8538 50.1254 38.539 49.357C37.3784 48.2588 36.3436 47.5172 35.4348 47.1295C35.3677 47.1013 35.302 47.0745 35.2363 47.0506Z" fill="#F7DCBE"/>
<path fill-rule="evenodd" clip-rule="evenodd" d="M48.9077 46.0947C48.7188 43.7685 48.3533 41.8498 47.8086 40.3398C46.0744 42.9015 42.4802 43.7488 43.7134 47.2931C44.2527 48.8425 45.8992 48.9313 48.6545 47.5581C48.6859 47.5412 48.7188 47.5257 48.7503 47.5088C48.7872 47.4453 48.8187 47.3776 48.8461 47.31C48.8789 46.9068 48.8995 46.5022 48.9077 46.0947Z" fill="#ED496A"/>
<path fill-rule="evenodd" clip-rule="evenodd" d="M45.8766 32.8706C43.3595 33.1089 39.9637 39.4967 42.9037 43.6444C44.3491 42.2952 47.5108 39.422 48.1185 37.5512C48.358 36.8153 48.4429 36.0949 48.4101 35.428C47.749 33.646 46.8935 32.7733 45.8766 32.8706Z" fill="#ED496A"/>
<path fill-rule="evenodd" clip-rule="evenodd" d="M26.3161 37.3776C25.7303 37.9373 25.2512 38.4575 24.8981 38.848C24.0043 39.8377 23.6827 40.6117 23.9345 41.17C26.0204 43.5624 27.756 44.3843 29.1397 43.6343C40.2099 36.66 32.8709 39.8391 31.4529 36.1961C30.8205 34.5706 27.4124 36.7615 26.3161 37.3776Z" fill="#ED496A"/>
<path fill-rule="evenodd" clip-rule="evenodd" d="M47.6328 31.1169C48.1611 31.444 48.4718 31.7542 48.5663 32.0488C50.0472 30.3345 51.7006 30.7673 53.532 29.9242C55.5878 28.9782 56.6964 27.3217 56.8579 24.9574C56.8388 23.7929 56.2653 22.7257 55.1361 21.7543C54.5763 21.6246 54.1068 21.8883 54.0302 22.6369C53.9453 23.4659 54.3833 24.7178 54.2013 25.6694C53.9727 26.8593 53.4375 27.7587 52.5999 28.365C52.1591 28.6836 51.7417 28.8951 51.3338 29.0374C50.1937 29.4336 47.8586 29.4745 47.6328 31.1169Z" fill="#F7DCBE"/>
<path fill-rule="evenodd" clip-rule="evenodd" d="M22.0578 37.7962L22.1673 36.6035L20.4701 35.6406L20.3086 37.4128L21.5952 38.1416C21.7608 38.0373 21.9155 37.9217 22.0578 37.7962Z" fill="#751729"/>
<path fill-rule="evenodd" clip-rule="evenodd" d="M20.9072 38.4858L20.2448 38.1094L20.1914 38.7057C20.4446 38.6465 20.6841 38.5732 20.9072 38.4858Z" fill="#751729"/>
<path fill-rule="evenodd" clip-rule="evenodd" d="M19.7133 37.074L19.8584 35.4922C19.5874 35.9194 19.3547 36.3409 19.1562 36.7582L19.7133 37.074Z" fill="#751729"/>
<path fill-rule="evenodd" clip-rule="evenodd" d="M20.5352 34.9413L22.2324 35.9042L22.413 33.915L21.4618 33.375C21.1429 33.7373 20.85 34.0982 20.5803 34.4549L20.5352 34.9413Z" fill="#751729"/>
<path fill-rule="evenodd" clip-rule="evenodd" d="M23.0102 34.252L22.8281 36.2426L23.0444 36.3653C23.2579 35.8239 23.3797 35.1951 23.4112 34.4803L23.0102 34.252Z" fill="#751729"/>
<path fill-rule="evenodd" clip-rule="evenodd" d="M23.0703 33.5534L23.4111 33.7465C23.3947 33.2855 23.3468 32.7963 23.266 32.2747C23.2441 32.2267 23.2222 32.1788 23.2003 32.1309L23.0703 33.5534Z" fill="#751729"/>
<path fill-rule="evenodd" clip-rule="evenodd" d="M22.4786 33.2146L22.5716 32.1953C22.339 32.4265 22.1159 32.6577 21.9023 32.8875L22.4786 33.2146Z" fill="#751729"/>
<path fill-rule="evenodd" clip-rule="evenodd" d="M38.61 44.9425L38.3048 42.9688C38.1351 43.3564 38.0366 43.9613 38.0078 44.7832L38.61 44.9425Z" fill="#751729"/>
<path fill-rule="evenodd" clip-rule="evenodd" d="M38.7172 45.6342L38 45.4453C38.0041 45.95 38.0287 46.5182 38.0753 47.1498L38.9896 47.3923L38.954 47.1625L38.7172 45.6342Z" fill="#751729"/>
<path fill-rule="evenodd" clip-rule="evenodd" d="M39.0952 48.0853L38.1289 47.8301C38.1535 48.105 38.1809 48.3898 38.2124 48.6858C38.519 48.5082 38.8146 48.3207 39.1007 48.1219L39.0952 48.0853Z" fill="#751729"/>
<path fill-rule="evenodd" clip-rule="evenodd" d="M39.5858 47.1733L39.646 47.5652L39.7979 47.6047C39.9677 47.4708 40.1346 47.3312 40.2961 47.1888C40.5671 46.9505 40.8272 46.7024 41.0749 46.4444L41.0448 46.2499L39.375 45.8086L39.5858 47.1733Z" fill="#751729"/>
<path fill-rule="evenodd" clip-rule="evenodd" d="M39.2687 45.1163L40.9399 45.5576L40.6347 43.5839L38.9648 43.1426L39.2687 45.1163Z" fill="#751729"/>
<path fill-rule="evenodd" clip-rule="evenodd" d="M41.293 43.7578L41.5982 45.7301L41.7036 45.7583C42.1484 45.2353 42.5029 44.6968 42.7671 44.1469L41.293 43.7578Z" fill="#751729"/>
<path fill-rule="evenodd" clip-rule="evenodd" d="M16.5867 47.0198C16.4854 47.3962 16.4375 47.7148 16.4416 47.9771C16.4458 48.228 16.4978 48.4254 16.5963 48.5706C19.7731 48.4028 21.8467 48.1477 22.8157 47.8065C22.8842 47.6754 22.9512 47.5485 23.0197 47.423C23.0484 47.3709 23.0772 47.3187 23.1059 47.2665C21.8905 46.2021 20.2768 45.7185 18.262 45.8172C17.5257 46.0978 16.9672 46.4996 16.5867 47.0198Z" fill="#751729"/>
<path fill-rule="evenodd" clip-rule="evenodd" d="M21.3281 44.5891C22.4258 44.8273 23.3456 45.2277 24.0628 45.7352C24.6869 44.8569 25.3343 44.1717 26.005 43.6797C25.218 42.9664 24.3804 42.1289 23.4907 41.166C22.0494 43.4485 21.3281 44.5891 21.3281 44.5891Z" fill="#751729"/>
<path fill-rule="evenodd" clip-rule="evenodd" d="M23.2248 47.0838C23.4986 46.6721 23.7614 46.2858 24.0146 45.9263C23.1263 45.2369 21.9889 44.8365 20.6051 44.7266C19.5841 44.9564 18.9271 45.2778 18.6328 45.6909C20.4491 45.5626 21.9793 46.0264 23.2248 47.0838Z" fill="#ED496A"/>
<path fill-rule="evenodd" clip-rule="evenodd" d="M50.6731 41.1602C49.8273 43.9558 50.2981 45.9817 52.087 47.2351C50.8319 45.8661 50.4541 43.922 50.9551 41.4026C50.8647 41.304 50.7703 41.2222 50.6731 41.1602Z" fill="#ED496A"/>
<path fill-rule="evenodd" clip-rule="evenodd" d="M37.8724 24.9053C35.755 20.8224 31.2013 23.1077 27.7617 20.3262C29.125 22.4254 30.6059 23.4757 32.2046 23.4757C34.7777 22.94 36.6666 23.4165 37.8724 24.9053Z" fill="#E0E0E0"/>
<path fill-rule="evenodd" clip-rule="evenodd" d="M47.0376 20.4629C44.4288 23.0443 40.2173 20.8083 38.375 24.9292C39.9285 23.2896 41.9487 22.744 44.4343 23.2924C45.4827 22.8257 46.3505 21.8826 47.0376 20.4629Z" fill="#E0E0E0"/>
<path fill-rule="evenodd" clip-rule="evenodd" d="M34.8945 21.9656C36.4959 22.1883 37.4869 22.6437 37.8811 23.5291C37.7442 21.9289 37.751 20.4796 37.8865 18.9824C37.4308 20.3612 36.3837 21.3185 34.8945 21.9656Z" fill="#E0E0E0"/>
<path fill-rule="evenodd" clip-rule="evenodd" d="M37.8867 18.9824C38.1002 20.9858 38.1892 22.3914 38.1468 23.5051C38.5957 22.7509 39.547 22.3124 41.0115 21.8852C39.8631 21.3946 38.8517 20.615 37.8867 18.9824Z" fill="#E0E0E0"/>
<path fill-rule="evenodd" clip-rule="evenodd" d="M43.5952 14.5845C46.4394 12.2499 49.3206 10.1309 52.2373 8.23047C48.3036 9.75025 45.6456 11.4604 42.2539 14.0516C42.5892 14.1799 43.2668 14.4393 43.5952 14.5845Z" fill="#E0E0E0"/>
<path fill-rule="evenodd" clip-rule="evenodd" d="M13.5998 44.1075C16.637 42.6357 18.5696 39.5129 14.9055 41.1046C14.0912 41.8856 13.4766 42.4749 13.0619 42.8725C13.0523 42.8824 13.0414 42.8908 13.0318 42.9007C12.5418 43.3913 12.1257 44.8209 13.5998 44.1075Z" fill="#2E2E2E"/>
<path fill-rule="evenodd" clip-rule="evenodd" d="M36.5442 31.7398C36.0022 31.8117 37.1409 33.2328 37.8198 33.3047C38.4987 33.2328 39.6375 31.8117 39.0954 31.7398C38.2482 31.6284 37.39 31.6284 36.5442 31.7398Z" fill="#FF4655"/>
<path fill-rule="evenodd" clip-rule="evenodd" d="M36.8047 32.1064C37.3289 31.9175 38.3705 31.9175 38.8947 32.1064C38.4841 31.6807 37.2153 31.6807 36.8047 32.1064Z" fill="#ED496A"/>
<path fill-rule="evenodd" clip-rule="evenodd" d="M14.7201 15.9408C13.2282 27.1376 18.0091 30.727 24.2682 26.8937C24.2149 25.2075 23.7413 21.9269 25.1579 19.2525C24.5119 16.5414 24.3545 14.7495 25.5452 11.1827C28.8863 10.7682 31.5594 11.1446 32.7392 12.2217C35.7873 10.3833 38.8286 10.0365 41.8603 11.1827C44.5704 8.76624 47.6855 7.35924 51.2031 6.96308C47.2544 2.67442 41.6742 0 35.4889 0C25.6835 0 17.3987 6.71919 14.7201 15.9408Z" fill="#FF4655"/>
<path d="M0.523438 67.9658V65.3887H1.04902V67.9658H0.523438Z" fill="#F7F7F7"/>
<path d="M4.60013 67.9658H3.92672L2.83723 66.0146H2.8208C2.8427 66.3614 2.85365 66.6068 2.85365 66.7534V67.9658H2.38281V65.3887H3.05074L4.13476 67.3173H4.14571C4.13066 66.9832 4.12381 66.7463 4.12381 66.6068V65.3887H4.60013V67.9658Z" fill="#F7F7F7"/>
<path d="M6.89744 67.9658H6.36638V65.8455H5.6875V65.3887H7.57632V65.8455H6.89744V67.9658Z" fill="#F7F7F7"/>
<path d="M10.1 67.9658H8.66016V65.3887H10.1V65.8342H9.18574V66.4037H10.0343V66.8492H9.18574V67.5147H10.1V67.9658Z" fill="#F7F7F7"/>
<path d="M11.8498 66.5334H12.025C12.192 66.5334 12.3152 66.5052 12.3918 66.4489C12.4712 66.3896 12.5123 66.2966 12.5123 66.1725C12.5123 66.0527 12.4712 65.9667 12.3918 65.9131C12.3111 65.861 12.1851 65.8342 12.0141 65.8342H11.8498V66.5334ZM11.8498 66.9789V67.9658H11.3242V65.3887H12.0524C12.3918 65.3887 12.6409 65.4535 12.8024 65.5804C12.9667 65.7087 13.0488 65.9018 13.0488 66.1613C13.0488 66.3121 13.0077 66.4474 12.9284 66.5673C12.8476 66.6843 12.7326 66.7759 12.5834 66.8436C12.9585 67.423 13.2048 67.7966 13.3225 67.9658H12.7313L12.1345 66.9789H11.8498Z" fill="#F7F7F7"/>
<path d="M16.5533 67.9658H15.8798L14.7904 66.0146H14.7739C14.7958 66.3614 14.8068 66.6068 14.8068 66.7534V67.9658H14.3359V65.3887H15.0039L16.0879 67.3173H16.0988C16.0838 66.9832 16.0769 66.7463 16.0769 66.6068V65.3887H16.5533V67.9658Z" fill="#F7F7F7"/>
<path d="M19.4114 67.9654L19.2308 67.3507H18.3219L18.1358 67.9654H17.5664L18.4479 65.377H19.0994L19.9863 67.9654H19.4114ZM19.1048 66.8939C18.9365 66.3384 18.842 66.0241 18.8201 65.9522C18.7982 65.8774 18.7832 65.8196 18.7763 65.7773C18.7394 65.9282 18.6313 66.3004 18.4533 66.8939H19.1048Z" fill="#F7F7F7"/>
<path d="M21.9638 67.9658H21.4328V65.8455H20.7539V65.3887H22.6427V65.8455H21.9638V67.9658Z" fill="#F7F7F7"/>
<path d="M23.7305 67.9658V65.3887H24.2561V67.9658H23.7305Z" fill="#F7F7F7"/>
<path d="M27.8581 66.6748C27.8581 67.1006 27.7555 67.4277 27.5515 67.6561C27.3462 67.8859 27.0533 68.0001 26.6701 68.0001C26.2868 68.0001 25.9912 67.8859 25.7832 67.6561C25.5778 67.4277 25.4766 67.0978 25.4766 66.6692C25.4766 66.2406 25.5778 65.9135 25.7832 65.688C25.9912 65.4624 26.2868 65.3496 26.6701 65.3496C27.0561 65.3496 27.3503 65.4652 27.5515 65.6936C27.7555 65.9192 27.8581 66.2463 27.8581 66.6748ZM26.035 66.6748C26.035 66.961 26.087 67.1767 26.1938 67.3234C26.2992 67.47 26.4579 67.5433 26.6701 67.5433C27.093 67.5433 27.3052 67.2543 27.3052 66.6748C27.3052 66.0968 27.093 65.8064 26.6701 65.8064C26.462 65.8064 26.3033 65.8797 26.1938 66.0263C26.087 66.1701 26.035 66.3858 26.035 66.6748Z" fill="#F7F7F7"/>
<path d="M31.2993 67.9658H30.6259L29.5364 66.0146H29.52C29.5419 66.3614 29.5529 66.6068 29.5529 66.7534V67.9658H29.082V65.3887H29.75L30.834 67.3173H30.8449C30.8299 66.9832 30.823 66.7463 30.823 66.6068V65.3887H31.2993V67.9658Z" fill="#F7F7F7"/>
<path d="M34.1575 67.9654L33.9769 67.3507H33.068L32.8819 67.9654H32.3125L33.194 65.377H33.8455L34.7324 67.9654H34.1575ZM33.8509 66.8939C33.6826 66.3384 33.5881 66.0241 33.5662 65.9522C33.5443 65.8774 33.5293 65.8196 33.5224 65.7773C33.4855 65.9282 33.3774 66.3004 33.1994 66.8939H33.8509Z" fill="#F7F7F7"/>
<path d="M35.7461 67.9658V65.3887H36.2717V67.5147H37.29V67.9658H35.7461Z" fill="#F7F7F7"/>
<path d="M40.0352 67.9658V65.3887H40.5607V67.5147H41.5791V67.9658H40.0352Z" fill="#F7F7F7"/>
<path d="M44.2435 67.9654L44.0628 67.3507H43.154L42.9678 67.9654H42.3984L43.2799 65.377H43.9314L44.8183 67.9654H44.2435ZM43.9369 66.8939C43.7685 66.3384 43.6741 66.0241 43.6522 65.9522C43.6303 65.8774 43.6152 65.8196 43.6084 65.7773C43.5714 65.9282 43.4633 66.3004 43.2854 66.8939H43.9369Z" fill="#F7F7F7"/>
<path d="M47.907 66.6519C47.907 67.0776 47.7879 67.4019 47.5511 67.6275C47.3171 67.853 46.979 67.9658 46.5383 67.9658H45.832V65.3887H46.6149C47.0228 65.3887 47.3404 65.5 47.5676 65.7214C47.7934 65.9441 47.907 66.2543 47.907 66.6519ZM47.354 66.6688C47.354 66.1133 47.1159 65.8342 46.6423 65.8342H46.3576V67.5147H46.5876C47.0981 67.5147 47.354 67.2327 47.354 66.6688Z" fill="#F7F7F7"/>
<path d="M49.125 67.9658V65.3887H49.6506V67.9658H49.125Z" fill="#F7F7F7"/>
<path d="M52.4282 67.9658H50.9883V65.3887H52.4282V65.8342H51.5139V66.4037H52.3625V66.8492H51.5139V67.5147H52.4282V67.9658Z" fill="#F7F7F7"/>
<path d="M55.1237 67.2503C55.1237 67.4843 55.0416 67.6676 54.8773 67.8029C54.7158 67.9354 54.4913 68.0003 54.2039 68.0003C53.937 68.0003 53.7002 67.9495 53.4922 67.848V67.3405C53.6633 67.4166 53.807 67.4702 53.9247 67.504C54.041 67.535 54.1464 67.5491 54.2422 67.5491C54.3586 67.5491 54.4475 67.5266 54.5105 67.4815C54.5721 67.4364 54.6036 67.3687 54.6036 67.2785C54.6036 67.2263 54.5885 67.1812 54.5598 67.1431C54.5338 67.1022 54.4941 67.0642 54.4393 67.0303C54.3873 66.9937 54.2806 66.9345 54.1163 66.8555C53.9658 66.7808 53.8535 66.7089 53.7769 66.6412C53.7002 66.5736 53.6373 66.4946 53.5907 66.4044C53.5469 66.3141 53.525 66.2098 53.525 66.0886C53.525 65.8602 53.5989 65.6811 53.7495 65.5528C53.8987 65.4217 54.1054 65.3555 54.3682 65.3555C54.4996 65.3555 54.6227 65.371 54.7405 65.4006C54.8609 65.4316 54.9841 65.4767 55.1127 65.5359L54.943 65.9589C54.8075 65.9025 54.6967 65.863 54.6091 65.8404C54.5215 65.8179 54.4352 65.8066 54.3517 65.8066C54.2532 65.8066 54.1765 65.832 54.1218 65.8799C54.067 65.9293 54.0397 65.9913 54.0397 66.066C54.0397 66.1154 54.0506 66.1591 54.0725 66.1957C54.0944 66.2296 54.1286 66.2634 54.1765 66.2972C54.2231 66.3311 54.3367 66.3917 54.516 66.4777C54.7487 66.5947 54.9074 66.7117 54.9923 66.8273C55.0799 66.9401 55.1237 67.0811 55.1237 67.2503Z" fill="#F7F7F7"/>
<path d="M58.8545 67.9658H58.3234V65.8455H57.6445V65.3887H59.5334V65.8455H58.8545V67.9658Z" fill="#F7F7F7"/>
<path d="M62.0571 67.9658H60.6172V65.3887H62.0571V65.8342H61.1428V66.4037H61.9914V66.8492H61.1428V67.5147H62.0571V67.9658Z" fill="#F7F7F7"/>
<path d="M64.8099 67.9654L64.6292 67.3507H63.7204L63.5342 67.9654H62.9648L63.8463 65.377H64.4978L65.3847 67.9654H64.8099ZM64.5033 66.8939C64.3349 66.3384 64.2405 66.0241 64.2186 65.9522C64.1967 65.8774 64.1816 65.8196 64.1748 65.7773C64.1378 65.9282 64.0297 66.3004 63.8518 66.8939H64.5033Z" fill="#F7F7F7"/>
<path d="M67.4551 67.9658L66.8529 65.947H66.8364C66.8583 66.3572 66.8693 66.6293 66.8693 66.7647V67.9658H66.3984V65.3887H67.1156L67.7124 67.3568H67.7179L68.3475 65.3887H69.0702V67.9658H68.5774V66.7477C68.5774 66.6885 68.5774 66.6209 68.5774 66.5447C68.5802 66.47 68.5884 66.2712 68.5993 65.947H68.5884L67.9423 67.9658H67.4551Z" fill="#F7F7F7"/>
</svg>
