<svg width="889" height="281" viewBox="0 0 889 281" fill="none" xmlns="http://www.w3.org/2000/svg">
<path d="M14.96 17.448H33.088C33.6747 17.448 34.2027 17.6827 34.672 18.152C35.1413 18.504 35.376 18.9733 35.376 19.56V102.632L98.56 20.264C100.085 18.3867 102.021 17.448 104.368 17.448H126.72C127.424 17.448 127.893 17.7413 128.128 18.328C128.48 18.9147 128.48 19.4427 128.128 19.912L37.488 137.832C35.9627 139.709 34.0267 140.648 31.68 140.648H14.96C14.3733 140.648 13.8453 140.472 13.376 140.12C13.024 139.651 12.848 139.123 12.848 138.536V19.56C12.848 18.9733 13.024 18.504 13.376 18.152C13.8453 17.6827 14.3733 17.448 14.96 17.448ZM70.8496 138.536L161.314 20.616C162.839 18.7387 164.775 17.8 167.122 17.8H183.842C185.25 17.8 185.954 18.504 185.954 19.912V138.888C185.954 140.296 185.25 141 183.842 141H167.122C164.775 141 162.839 140.061 161.314 138.184L130.866 98.408L100.242 138.184C98.7163 140.061 96.7803 141 94.4336 141H72.0816C71.495 141 71.0256 140.765 70.6736 140.296C70.3216 139.709 70.3803 139.123 70.8496 138.536ZM145.474 79.4L163.602 102.984V55.816L145.474 79.4ZM213.476 17.8H231.604C233.129 17.8 233.892 18.504 233.892 19.912V118.648H283.172C283.876 118.648 284.345 118.941 284.58 119.528C284.932 120.115 284.932 120.643 284.58 121.112L271.38 138.184C269.854 140.061 267.977 141 265.748 141H213.476C212.889 141 212.361 140.824 211.892 140.472C211.54 140.003 211.364 139.475 211.364 138.888V19.912C211.364 19.3253 211.54 18.856 211.892 18.504C212.361 18.0347 212.889 17.8 213.476 17.8ZM293.576 78.872C293.576 69.8373 295.219 61.448 298.504 53.704C301.907 45.8427 306.424 39.096 312.056 33.464C317.806 27.7147 324.552 23.256 332.296 20.088C340.04 16.8027 348.371 15.2187 357.288 15.336C366.206 15.4533 374.536 17.2133 382.28 20.616C390.024 24.0187 396.712 28.6533 402.344 34.52C408.094 40.3867 412.611 47.2507 415.896 55.112C419.182 62.856 420.766 71.128 420.648 79.928C420.531 88.8453 418.771 97.176 415.368 104.92C411.966 112.664 407.331 119.411 401.464 125.16C395.715 130.909 388.968 135.427 381.224 138.712C373.48 141.88 365.15 143.464 356.232 143.464C347.432 143.464 339.16 141.821 331.416 138.536C323.79 135.133 317.16 130.557 311.528 124.808C305.896 118.941 301.496 112.077 298.328 104.216C295.16 96.3547 293.576 87.9067 293.576 78.872ZM316.104 79.752C316.104 85.5013 317.219 90.9573 319.448 96.12C321.678 101.283 324.67 105.8 328.424 109.672C332.179 113.544 336.52 116.595 341.448 118.824C346.376 121.053 351.656 122.168 357.288 122.168C362.803 122.051 368.024 120.819 372.952 118.472C377.88 116.125 382.163 113.016 385.8 109.144C389.555 105.155 392.488 100.579 394.6 95.416C396.712 90.136 397.71 84.6213 397.592 78.872C397.592 73.1227 396.478 67.6667 394.248 62.504C392.019 57.3413 389.027 52.8827 385.272 49.128C381.518 45.256 377.118 42.2053 372.072 39.976C367.144 37.7467 361.923 36.632 356.408 36.632C350.894 36.7493 345.672 37.9813 340.744 40.328C335.816 42.5573 331.534 45.6667 327.896 49.656C324.259 53.528 321.384 58.0453 319.272 63.208C317.16 68.3707 316.104 73.8853 316.104 79.752ZM440.817 19.56C440.817 18.9733 440.993 18.504 441.345 18.152C441.814 17.6827 442.342 17.448 442.929 17.448H535.857C536.443 17.448 536.913 17.6827 537.265 18.152C537.734 18.504 537.969 18.9733 537.969 19.56V45.432C537.969 47.0747 537.441 48.5413 536.385 49.832L508.577 86.264L548.353 138.184C548.705 138.771 548.705 139.357 548.353 139.944C548.118 140.413 547.707 140.648 547.121 140.648H524.769C522.422 140.648 520.486 139.709 518.961 137.832L480.417 87.672C479.595 86.7333 479.595 85.8533 480.417 85.032L515.089 39.8H463.345V138.536C463.345 139.944 462.582 140.648 461.057 140.648H442.929C442.342 140.648 441.814 140.472 441.345 140.12C440.993 139.651 440.817 139.123 440.817 138.536V19.56ZM564.96 17.8H581.68C584.027 17.8 585.963 18.7387 587.488 20.616L677.952 138.536C678.421 139.005 678.48 139.533 678.128 140.12C677.893 140.707 677.424 141 676.72 141H654.368C652.021 141 650.085 140.061 648.56 138.184L618.112 98.408L587.488 138.184C585.963 140.061 584.027 141 581.68 141H564.96C564.373 141 563.845 140.824 563.376 140.472C563.024 140.003 562.848 139.475 562.848 138.888V19.912C562.848 19.3253 563.024 18.856 563.376 18.504C563.845 18.0347 564.373 17.8 564.96 17.8ZM660 19.912C660 18.504 660.763 17.8 662.288 17.8H679.008C681.237 17.8 683.115 18.7387 684.64 20.616L748 102.984V19.912C748 18.504 748.704 17.8 750.112 17.8H768.24C769.765 17.8 770.528 18.504 770.528 19.912V138.888C770.528 139.475 770.293 140.003 769.824 140.472C769.355 140.824 768.827 141 768.24 141H751.52C749.173 141 747.237 140.061 745.712 138.184L682.528 55.816V104.04C682.528 104.744 682.176 105.213 681.472 105.448C680.768 105.683 680.181 105.507 679.712 104.92L661.584 81.336C660.528 80.0453 660 78.5787 660 76.936V19.912ZM585.376 55.816V102.984L603.504 79.4L585.376 55.816ZM789.922 19.56C789.922 18.9733 790.098 18.504 790.45 18.152C790.92 17.6827 791.448 17.448 792.034 17.448H868.418C870.765 17.448 872.701 18.3867 874.226 20.264L887.25 37.336C887.72 37.9227 887.778 38.5093 887.426 39.096C887.192 39.5653 886.722 39.8 886.018 39.8H846.77V138.536C846.77 139.944 846.066 140.648 844.658 140.648H826.53C825.122 140.648 824.418 139.944 824.418 138.536V39.8H792.034C791.448 39.8 790.92 39.624 790.45 39.272C790.098 38.8027 789.922 38.2747 789.922 37.688V19.56Z" fill="#FF4655"/>
<mask id="path-2-outside-1_79_692" maskUnits="userSpaceOnUse" x="130.5" y="190" width="624" height="70" fill="black">
<rect fill="white" x="130.5" y="190" width="624" height="70"/>
<path d="M134.37 224.642C134.37 220.227 135.173 216.128 136.778 212.344C138.441 208.56 140.648 205.263 143.4 202.454C146.209 199.645 149.506 197.466 153.29 195.918C157.074 194.313 161.145 193.539 165.502 193.596C170.146 193.653 174.417 194.599 178.316 196.434C182.272 198.269 185.683 200.791 188.55 204.002C188.722 204.231 188.779 204.489 188.722 204.776C188.722 205.063 188.607 205.292 188.378 205.464L181.584 211.226C181.355 211.398 181.097 211.484 180.81 211.484C180.523 211.427 180.294 211.283 180.122 211.054C178.23 208.875 175.994 207.155 173.414 205.894C170.834 204.575 168.053 203.945 165.072 204.002C162.377 204.059 159.826 204.661 157.418 205.808C155.01 206.897 152.917 208.417 151.14 210.366C149.363 212.258 147.958 214.465 146.926 216.988C145.894 219.511 145.378 222.205 145.378 225.072C145.378 227.939 145.923 230.633 147.012 233.156C148.101 235.679 149.563 237.886 151.398 239.778C153.233 241.67 155.354 243.161 157.762 244.25C160.17 245.282 162.75 245.798 165.502 245.798C168.369 245.741 171.063 245.081 173.586 243.82C176.109 242.559 178.287 240.839 180.122 238.66C180.294 238.431 180.523 238.316 180.81 238.316C181.097 238.259 181.355 238.345 181.584 238.574L188.378 244.336C188.607 244.508 188.722 244.737 188.722 245.024C188.779 245.311 188.722 245.569 188.55 245.798C185.626 249.066 182.157 251.646 178.144 253.538C174.131 255.373 169.745 256.261 164.986 256.204C160.686 256.204 156.644 255.401 152.86 253.796C149.133 252.133 145.894 249.897 143.142 247.088C140.39 244.221 138.24 240.867 136.692 237.026C135.144 233.185 134.37 229.057 134.37 224.642ZM196.015 224.642C196.015 220.227 196.817 216.128 198.423 212.344C200.085 208.503 202.293 205.206 205.045 202.454C207.854 199.645 211.151 197.466 214.935 195.918C218.719 194.313 222.789 193.539 227.147 193.596C231.504 193.653 235.575 194.513 239.359 196.176C243.143 197.839 246.411 200.103 249.163 202.97C251.972 205.837 254.179 209.191 255.785 213.032C257.39 216.816 258.164 220.858 258.107 225.158C258.049 229.515 257.189 233.586 255.527 237.37C253.864 241.154 251.599 244.451 248.733 247.26C245.923 250.069 242.627 252.277 238.843 253.882C235.059 255.43 230.988 256.204 226.631 256.204C222.331 256.204 218.289 255.401 214.505 253.796C210.778 252.133 207.539 249.897 204.787 247.088C202.035 244.221 199.885 240.867 198.337 237.026C196.789 233.185 196.015 229.057 196.015 224.642ZM207.023 225.072C207.023 227.881 207.567 230.547 208.657 233.07C209.746 235.593 211.208 237.8 213.043 239.692C214.877 241.584 216.999 243.075 219.407 244.164C221.815 245.253 224.395 245.798 227.147 245.798C229.841 245.741 232.393 245.139 234.801 243.992C237.209 242.845 239.301 241.326 241.079 239.434C242.913 237.485 244.347 235.249 245.379 232.726C246.411 230.146 246.898 227.451 246.841 224.642C246.841 221.833 246.296 219.167 245.207 216.644C244.117 214.121 242.655 211.943 240.821 210.108C238.986 208.216 236.836 206.725 234.371 205.636C231.963 204.547 229.411 204.002 226.717 204.002C224.022 204.059 221.471 204.661 219.063 205.808C216.655 206.897 214.562 208.417 212.785 210.366C211.007 212.258 209.603 214.465 208.571 216.988C207.539 219.511 207.023 222.205 207.023 225.072ZM256.243 253.796L300.447 196.176C301.192 195.259 302.138 194.8 303.285 194.8H311.455C312.143 194.8 312.487 195.144 312.487 195.832V236.424L343.447 196.176C344.192 195.259 345.138 194.8 346.285 194.8H354.455C355.143 194.8 355.487 195.144 355.487 195.832V253.968C355.487 254.656 355.143 255 354.455 255H345.597C344.851 255 344.479 254.656 344.479 253.968V213.376L313.605 253.624C312.859 254.541 311.913 255 310.767 255H302.597C301.909 255 301.565 254.656 301.565 253.968V213.376L270.605 253.624C269.859 254.541 268.913 255 267.767 255H256.845C256.558 255 256.329 254.885 256.157 254.656C255.985 254.369 256.013 254.083 256.243 253.796ZM367.903 253.796V195.66C367.903 195.373 367.989 195.144 368.161 194.972C368.39 194.743 368.648 194.628 368.935 194.628H414.343C414.63 194.628 414.859 194.743 415.031 194.972C415.26 195.144 415.375 195.373 415.375 195.66V208.302C415.375 209.105 415.117 209.821 414.601 210.452L402.045 226.878C401.3 227.795 400.354 228.254 399.207 228.254H388.285C387.941 228.254 387.683 228.139 387.511 227.91C387.396 227.623 387.454 227.337 387.683 227.05L404.195 205.55H378.911V253.796C378.911 254.484 378.538 254.828 377.793 254.828H368.935C368.648 254.828 368.39 254.742 368.161 254.57C367.989 254.341 367.903 254.083 367.903 253.796ZM425.373 194.8H465.191C465.535 194.8 465.764 194.943 465.879 195.23C466.051 195.459 466.022 195.717 465.793 196.004L459.429 204.346C458.683 205.263 457.737 205.722 456.591 205.722H435.349V219.482H456.849C457.537 219.482 457.881 219.826 457.881 220.514V229.286C457.881 230.031 457.537 230.404 456.849 230.404H435.349V244.078H462.525C462.811 244.078 463.041 244.193 463.213 244.422C463.442 244.594 463.557 244.823 463.557 245.11V253.968C463.557 254.656 463.213 255 462.525 255H425.373C425.086 255 424.828 254.914 424.599 254.742C424.427 254.513 424.341 254.255 424.341 253.968V195.832C424.341 195.545 424.427 195.316 424.599 195.144C424.828 194.915 425.086 194.8 425.373 194.8ZM475.332 195.66C475.332 195.373 475.418 195.144 475.59 194.972C475.82 194.743 476.078 194.628 476.364 194.628H513.688C514.835 194.628 515.781 195.087 516.526 196.004L522.89 204.346C523.12 204.633 523.148 204.919 522.976 205.206C522.862 205.435 522.632 205.55 522.288 205.55H503.11V253.796C503.11 254.484 502.766 254.828 502.078 254.828H493.22C492.532 254.828 492.188 254.484 492.188 253.796V205.55H476.364C476.078 205.55 475.82 205.464 475.59 205.292C475.418 205.063 475.332 204.805 475.332 204.518V195.66ZM530.773 194.8H539.631C540.376 194.8 540.749 195.144 540.749 195.832V253.968C540.749 254.656 540.376 255 539.631 255H530.773C530.486 255 530.228 254.914 529.999 254.742C529.827 254.513 529.741 254.255 529.741 253.968V195.832C529.741 195.545 529.827 195.316 529.999 195.144C530.228 194.915 530.486 194.8 530.773 194.8ZM550.163 195.66C550.163 195.373 550.249 195.144 550.421 194.972C550.65 194.743 550.908 194.628 551.195 194.628H588.519C589.665 194.628 590.611 195.087 591.357 196.004L597.721 204.346C597.95 204.633 597.979 204.919 597.807 205.206C597.692 205.435 597.463 205.55 597.119 205.55H577.941V253.796C577.941 254.484 577.597 254.828 576.909 254.828H568.051C567.363 254.828 567.019 254.484 567.019 253.796V205.55H551.195C550.908 205.55 550.65 205.464 550.421 205.292C550.249 205.063 550.163 204.805 550.163 204.518V195.66ZM605.603 194.8H614.461C615.206 194.8 615.579 195.144 615.579 195.832V253.968C615.579 254.656 615.206 255 614.461 255H605.603C605.316 255 605.058 254.914 604.829 254.742C604.657 254.513 604.571 254.255 604.571 253.968V195.832C604.571 195.545 604.657 195.316 604.829 195.144C605.058 194.915 605.316 194.8 605.603 194.8ZM625.595 224.642C625.595 220.227 626.397 216.128 628.003 212.344C629.665 208.503 631.873 205.206 634.625 202.454C637.434 199.645 640.731 197.466 644.515 195.918C648.299 194.313 652.369 193.539 656.727 193.596C661.084 193.653 665.155 194.513 668.939 196.176C672.723 197.839 675.991 200.103 678.743 202.97C681.552 205.837 683.759 209.191 685.365 213.032C686.97 216.816 687.744 220.858 687.687 225.158C687.629 229.515 686.769 233.586 685.107 237.37C683.444 241.154 681.179 244.451 678.313 247.26C675.503 250.069 672.207 252.277 668.423 253.882C664.639 255.43 660.568 256.204 656.211 256.204C651.911 256.204 647.869 255.401 644.085 253.796C640.358 252.133 637.119 249.897 634.367 247.088C631.615 244.221 629.465 240.867 627.917 237.026C626.369 233.185 625.595 229.057 625.595 224.642ZM636.603 225.072C636.603 227.881 637.147 230.547 638.237 233.07C639.326 235.593 640.788 237.8 642.623 239.692C644.457 241.584 646.579 243.075 648.987 244.164C651.395 245.253 653.975 245.798 656.727 245.798C659.421 245.741 661.973 245.139 664.381 243.992C666.789 242.845 668.881 241.326 670.659 239.434C672.493 237.485 673.927 235.249 674.959 232.726C675.991 230.146 676.478 227.451 676.421 224.642C676.421 221.833 675.876 219.167 674.787 216.644C673.697 214.121 672.235 211.943 670.401 210.108C668.566 208.216 666.416 206.725 663.951 205.636C661.543 204.547 658.991 204.002 656.297 204.002C653.602 204.059 651.051 204.661 648.643 205.808C646.235 206.897 644.142 208.417 642.365 210.366C640.587 212.258 639.183 214.465 638.151 216.988C637.119 219.511 636.603 222.205 636.603 225.072ZM697.542 253.968V195.832C697.542 195.545 697.628 195.316 697.8 195.144C698.029 194.915 698.287 194.8 698.574 194.8H706.744C707.89 194.8 708.836 195.259 709.582 196.176L740.542 236.424V195.832C740.542 195.144 740.886 194.8 741.574 194.8H750.432C751.12 194.8 751.464 195.144 751.464 195.832V253.968C751.464 254.656 751.12 255 750.432 255H742.262C741.115 255 740.169 254.541 739.424 253.624L708.55 213.376V253.968C708.55 254.656 708.177 255 707.432 255H698.574C698.287 255 698.029 254.914 697.8 254.742C697.628 254.513 697.542 254.255 697.542 253.968Z"/>
</mask>
<path d="M136.778 212.344L134.031 211.137L134.024 211.155L134.016 211.172L136.778 212.344ZM143.4 202.454L141.279 200.333L141.268 200.344L141.257 200.355L143.4 202.454ZM153.29 195.918L154.426 198.695L154.444 198.687L154.462 198.68L153.29 195.918ZM165.502 193.596L165.463 196.596L165.465 196.596L165.502 193.596ZM178.316 196.434L177.039 199.148L177.046 199.152L177.054 199.156L178.316 196.434ZM188.55 204.002L190.95 202.202L190.873 202.1L190.788 202.004L188.55 204.002ZM188.722 204.776L185.78 204.188L185.722 204.479V204.776H188.722ZM188.378 205.464L186.578 203.064L186.506 203.118L186.438 203.176L188.378 205.464ZM181.584 211.226L183.384 213.626L183.456 213.572L183.524 213.514L181.584 211.226ZM180.81 211.484L180.222 214.426L180.513 214.484H180.81V211.484ZM180.122 211.054L182.522 209.254L182.458 209.168L182.387 209.087L180.122 211.054ZM173.414 205.894L172.049 208.565L172.072 208.577L172.096 208.589L173.414 205.894ZM165.072 204.002L165.014 201.003L165.008 201.003L165.072 204.002ZM157.418 205.808L158.655 208.541L158.681 208.529L158.708 208.517L157.418 205.808ZM151.14 210.366L153.327 212.42L153.342 212.404L153.357 212.387L151.14 210.366ZM146.926 216.988L149.703 218.124V218.124L146.926 216.988ZM147.012 233.156L144.258 234.345H144.258L147.012 233.156ZM151.398 239.778L153.552 237.69L151.398 239.778ZM157.762 244.25L156.525 246.983L156.553 246.996L156.58 247.007L157.762 244.25ZM165.502 245.798V248.798H165.532L165.562 248.797L165.502 245.798ZM173.586 243.82L174.928 246.503H174.928L173.586 243.82ZM180.122 238.66L182.417 240.592L182.471 240.528L182.522 240.46L180.122 238.66ZM180.81 238.316V241.316H181.107L181.398 241.258L180.81 238.316ZM181.584 238.574L179.463 240.695L179.55 240.782L179.644 240.862L181.584 238.574ZM188.378 244.336L186.438 246.624L186.506 246.682L186.578 246.736L188.378 244.336ZM188.722 245.024H185.722V245.321L185.78 245.612L188.722 245.024ZM188.55 245.798L190.786 247.798L190.872 247.702L190.95 247.598L188.55 245.798ZM178.144 253.538L179.391 256.266L179.407 256.259L179.423 256.252L178.144 253.538ZM164.986 256.204L165.022 253.204L165.004 253.204H164.986V256.204ZM152.86 253.796L151.638 256.536L151.663 256.547L151.688 256.558L152.86 253.796ZM143.142 247.088L140.978 249.166L140.988 249.177L140.999 249.187L143.142 247.088ZM136.692 237.026L133.909 238.147L136.692 237.026ZM137.37 224.642C137.37 220.6 138.103 216.902 139.54 213.516L134.016 211.172C132.242 215.354 131.37 219.855 131.37 224.642H137.37ZM139.525 213.551C141.049 210.081 143.057 207.091 145.543 204.553L141.257 200.355C138.239 203.436 135.832 207.039 134.031 211.137L139.525 213.551ZM145.521 204.575C148.041 202.056 151 200.096 154.426 198.695L152.154 193.141C148.012 194.836 144.378 197.233 141.279 200.333L145.521 204.575ZM154.462 198.68C157.84 197.246 161.496 196.544 165.463 196.596L165.541 190.596C160.794 190.534 156.308 191.379 152.118 193.156L154.462 198.68ZM165.465 196.596C169.714 196.648 173.558 197.51 177.039 199.148L179.593 193.72C175.277 191.688 170.578 190.658 165.539 190.596L165.465 196.596ZM177.054 199.156C180.644 200.82 183.722 203.099 186.312 206L190.788 202.004C187.645 198.484 183.9 195.717 179.578 193.712L177.054 199.156ZM186.15 205.802C186.002 205.605 185.865 205.34 185.793 205.018C185.722 204.698 185.736 204.41 185.78 204.188L191.664 205.364C191.885 204.26 191.646 203.129 190.95 202.202L186.15 205.802ZM185.722 204.776C185.722 204.509 185.778 204.17 185.953 203.821C186.127 203.472 186.365 203.224 186.578 203.064L190.178 207.864C191.163 207.125 191.722 206.007 191.722 204.776H185.722ZM186.438 203.176L179.644 208.938L183.524 213.514L190.318 207.752L186.438 203.176ZM179.784 208.826C179.913 208.729 180.077 208.638 180.27 208.573C180.463 208.509 180.648 208.484 180.81 208.484V214.484C181.746 214.484 182.635 214.187 183.384 213.626L179.784 208.826ZM181.398 208.542C181.581 208.579 181.797 208.654 182.013 208.789C182.23 208.925 182.4 209.091 182.522 209.254L177.722 212.854C178.346 213.687 179.227 214.227 180.222 214.426L181.398 208.542ZM182.387 209.087C180.233 206.606 177.675 204.638 174.732 203.199L172.096 208.589C174.313 209.673 176.227 211.145 177.857 213.021L182.387 209.087ZM174.779 203.223C171.746 201.672 168.475 200.936 165.014 201.003L165.13 207.001C167.632 206.953 169.922 207.478 172.049 208.565L174.779 203.223ZM165.008 201.003C161.894 201.069 158.924 201.768 156.128 203.099L158.708 208.517C160.728 207.555 162.861 207.05 165.136 207.001L165.008 201.003ZM156.181 203.075C153.402 204.332 150.976 206.093 148.923 208.345L153.357 212.387C154.859 210.74 156.618 209.463 158.655 208.541L156.181 203.075ZM148.953 208.312C146.913 210.485 145.313 213.007 144.149 215.852L149.703 218.124C150.603 215.924 151.813 214.031 153.327 212.42L148.953 208.312ZM144.149 215.852C142.962 218.754 142.378 221.836 142.378 225.072H148.378C148.378 222.574 148.826 220.268 149.703 218.124L144.149 215.852ZM142.378 225.072C142.378 228.33 142.999 231.431 144.258 234.345L149.766 231.967C148.846 229.836 148.378 227.548 148.378 225.072H142.378ZM144.258 234.345C145.485 237.187 147.146 239.703 149.244 241.866L153.552 237.69C151.981 236.069 150.718 234.17 149.766 231.967L144.258 234.345ZM149.244 241.866C151.342 244.03 153.775 245.739 156.525 246.983L158.999 241.517C156.933 240.582 155.123 239.31 153.552 237.69L149.244 241.866ZM156.58 247.007C159.38 248.208 162.365 248.798 165.502 248.798V242.798C163.135 242.798 160.96 242.356 158.944 241.493L156.58 247.007ZM165.562 248.797C168.866 248.731 172 247.967 174.928 246.503L172.244 241.137C170.127 242.195 167.871 242.75 165.442 242.799L165.562 248.797ZM174.928 246.503C177.82 245.057 180.322 243.08 182.417 240.592L177.827 236.728C176.253 238.597 174.398 240.06 172.244 241.137L174.928 246.503ZM182.522 240.46C182.362 240.673 182.114 240.911 181.765 241.085C181.416 241.26 181.077 241.316 180.81 241.316V235.316C179.579 235.316 178.461 235.875 177.722 236.86L182.522 240.46ZM181.398 241.258C181.069 241.324 180.673 241.318 180.27 241.184C179.88 241.054 179.614 240.847 179.463 240.695L183.705 236.453C182.858 235.605 181.612 235.096 180.222 235.374L181.398 241.258ZM179.644 240.862L186.438 246.624L190.318 242.048L183.524 236.286L179.644 240.862ZM186.578 246.736C186.365 246.576 186.127 246.328 185.953 245.979C185.778 245.63 185.722 245.291 185.722 245.024H191.722C191.722 243.793 191.163 242.675 190.178 241.936L186.578 246.736ZM185.78 245.612C185.736 245.39 185.722 245.102 185.793 244.782C185.865 244.46 186.002 244.195 186.15 243.998L190.95 247.598C191.646 246.671 191.885 245.54 191.664 244.436L185.78 245.612ZM186.314 243.798C183.661 246.763 180.519 249.102 176.865 250.824L179.423 256.252C183.796 254.19 187.591 251.369 190.786 247.798L186.314 243.798ZM176.897 250.81C173.317 252.446 169.374 253.257 165.022 253.204L164.95 259.204C170.116 259.266 174.944 258.299 179.391 256.266L176.897 250.81ZM164.986 253.204C161.07 253.204 157.428 252.475 154.032 251.034L151.688 256.558C155.86 258.328 160.302 259.204 164.986 259.204V253.204ZM154.082 251.056C150.687 249.541 147.763 247.518 145.285 244.989L140.999 249.187C144.025 252.276 147.58 254.725 151.638 256.536L154.082 251.056ZM145.306 245.01C142.831 242.432 140.886 239.406 139.475 235.905L133.909 238.147C135.594 242.329 137.949 246.011 140.978 249.166L145.306 245.01ZM139.475 235.905C138.079 232.443 137.37 228.698 137.37 224.642H131.37C131.37 229.415 132.209 233.927 133.909 238.147L139.475 235.905ZM198.423 212.344L195.669 211.152L195.665 211.162L195.661 211.172L198.423 212.344ZM205.045 202.454L207.166 204.575V204.575L205.045 202.454ZM214.935 195.918L216.07 198.695L216.088 198.687L216.106 198.68L214.935 195.918ZM227.147 193.596L227.107 196.596L227.147 193.596ZM239.359 196.176L238.152 198.923L239.359 196.176ZM249.163 202.97L246.998 205.048L247.009 205.059L247.02 205.07L249.163 202.97ZM255.785 213.032L253.017 214.189L253.02 214.196L253.023 214.204L255.785 213.032ZM258.107 225.158L255.107 225.118V225.119L258.107 225.158ZM255.527 237.37L258.273 238.577L255.527 237.37ZM248.733 247.26L246.633 245.117L246.622 245.128L246.611 245.139L248.733 247.26ZM238.843 253.882L239.978 256.659L239.996 256.651L240.014 256.644L238.843 253.882ZM214.505 253.796L213.282 256.536L213.307 256.547L213.333 256.558L214.505 253.796ZM204.787 247.088L202.622 249.166L202.633 249.177L202.643 249.187L204.787 247.088ZM198.337 237.026L195.554 238.147L198.337 237.026ZM208.657 233.07L205.902 234.259V234.259L208.657 233.07ZM213.043 239.692L215.196 237.604L213.043 239.692ZM219.407 244.164L218.17 246.897L219.407 244.164ZM227.147 245.798V248.798H227.178L227.21 248.797L227.147 245.798ZM234.801 243.992L233.511 241.283L234.801 243.992ZM241.079 239.434L238.894 237.378L238.892 237.38L241.079 239.434ZM245.379 232.726L248.155 233.862L248.16 233.851L248.164 233.84L245.379 232.726ZM246.841 224.642H243.841V224.673L243.841 224.703L246.841 224.642ZM240.821 210.108L238.667 212.196L238.683 212.213L238.699 212.229L240.821 210.108ZM234.371 205.636L233.134 208.369L233.146 208.375L233.158 208.38L234.371 205.636ZM226.717 204.002V201.002H226.685L226.653 201.003L226.717 204.002ZM219.063 205.808L220.299 208.541L220.326 208.529L220.352 208.517L219.063 205.808ZM212.785 210.366L214.971 212.42L214.986 212.404L215.001 212.387L212.785 210.366ZM208.571 216.988L211.347 218.124V218.124L208.571 216.988ZM199.015 224.642C199.015 220.6 199.748 216.902 201.184 213.516L195.661 211.172C193.887 215.354 193.015 219.855 193.015 224.642H199.015ZM201.176 213.536C202.7 210.015 204.701 207.04 207.166 204.575L202.923 200.333C199.884 203.372 197.471 206.99 195.669 211.152L201.176 213.536ZM207.166 204.575C209.685 202.056 212.644 200.096 216.07 198.695L213.799 193.141C209.657 194.836 206.022 197.233 202.923 200.333L207.166 204.575ZM216.106 198.68C219.485 197.246 223.14 196.544 227.107 196.596L227.186 190.596C222.438 190.534 217.952 191.379 213.763 193.156L216.106 198.68ZM227.107 196.596C231.084 196.648 234.756 197.43 238.152 198.923L240.565 193.429C236.393 191.596 231.923 190.659 227.186 190.596L227.107 196.596ZM238.152 198.923C241.591 200.434 244.529 202.476 246.998 205.048L251.327 200.892C248.292 197.731 244.695 195.244 240.565 193.429L238.152 198.923ZM247.02 205.07C249.553 207.655 251.552 210.685 253.017 214.189L258.553 211.875C256.806 207.696 254.391 204.019 251.305 200.87L247.02 205.07ZM253.023 214.204C254.458 217.587 255.159 221.214 255.107 225.118L261.106 225.198C261.169 220.502 260.322 216.045 258.546 211.86L253.023 214.204ZM255.107 225.119C255.054 229.096 254.272 232.767 252.78 236.163L258.273 238.577C260.106 234.405 261.044 229.935 261.106 225.197L255.107 225.119ZM252.78 236.163C251.267 239.607 249.218 242.584 246.633 245.117L250.832 249.403C253.98 246.317 256.461 242.701 258.273 238.577L252.78 236.163ZM246.611 245.139C244.084 247.666 241.113 249.66 237.671 251.12L240.014 256.644C244.14 254.893 247.763 252.473 250.854 249.381L246.611 245.139ZM237.707 251.105C234.306 252.496 230.624 253.204 226.631 253.204V259.204C231.351 259.204 235.811 258.364 239.978 256.659L237.707 251.105ZM226.631 253.204C222.714 253.204 219.073 252.475 215.676 251.034L213.333 256.558C217.505 258.328 221.947 259.204 226.631 259.204V253.204ZM215.727 251.056C212.331 249.541 209.408 247.518 206.93 244.989L202.643 249.187C205.669 252.276 209.224 254.725 213.282 256.536L215.727 251.056ZM206.951 245.01C204.475 242.432 202.53 239.406 201.119 235.905L195.554 238.147C197.239 242.329 199.594 246.011 202.622 249.166L206.951 245.01ZM201.119 235.905C199.724 232.443 199.015 228.698 199.015 224.642H193.015C193.015 229.415 193.853 233.927 195.554 238.147L201.119 235.905ZM204.023 225.072C204.023 228.281 204.647 231.353 205.902 234.259L211.411 231.881C210.487 229.742 210.023 227.482 210.023 225.072H204.023ZM205.902 234.259C207.13 237.101 208.79 239.617 210.889 241.78L215.196 237.604C213.625 235.983 212.362 234.084 211.411 231.881L205.902 234.259ZM210.889 241.78C212.987 243.944 215.419 245.653 218.17 246.897L220.643 241.431C218.578 240.496 216.768 239.224 215.196 237.604L210.889 241.78ZM218.17 246.897C220.983 248.17 223.986 248.798 227.147 248.798V242.798C224.803 242.798 222.646 242.337 220.643 241.431L218.17 246.897ZM227.21 248.797C230.325 248.731 233.295 248.032 236.09 246.701L233.511 241.283C231.49 242.245 229.357 242.75 227.083 242.799L227.21 248.797ZM236.09 246.701C238.826 245.398 241.225 243.66 243.265 241.488L238.892 237.38C237.377 238.992 235.591 240.293 233.511 241.283L236.09 246.701ZM243.263 241.49C245.355 239.268 246.986 236.719 248.155 233.862L242.602 231.59C241.707 233.779 240.472 235.701 238.894 237.378L243.263 241.49ZM248.164 233.84C249.347 230.882 249.905 227.788 249.84 224.581L243.841 224.703C243.89 227.115 243.474 229.41 242.593 231.612L248.164 233.84ZM249.841 224.642C249.841 221.433 249.216 218.361 247.961 215.455L242.452 217.833C243.376 219.972 243.841 222.232 243.841 224.642H249.841ZM247.961 215.455C246.73 212.605 245.06 210.105 242.942 207.987L238.699 212.229C240.25 213.781 241.504 215.638 242.452 217.833L247.961 215.455ZM242.974 208.02C240.865 205.844 238.393 204.134 235.583 202.892L233.158 208.38C235.279 209.317 237.107 210.588 238.667 212.196L242.974 208.02ZM235.607 202.903C232.803 201.634 229.829 201.002 226.717 201.002V207.002C228.993 207.002 231.122 207.459 233.134 208.369L235.607 202.903ZM226.653 201.003C223.538 201.069 220.568 201.768 217.773 203.099L220.352 208.517C222.373 207.555 224.506 207.05 226.78 207.001L226.653 201.003ZM217.826 203.075C215.047 204.332 212.62 206.093 210.568 208.345L215.001 212.387C216.503 210.74 218.262 209.463 220.299 208.541L217.826 203.075ZM210.598 208.312C208.557 210.485 206.958 213.007 205.794 215.852L211.347 218.124C212.247 215.924 213.457 214.031 214.971 212.42L210.598 208.312ZM205.794 215.852C204.607 218.754 204.023 221.836 204.023 225.072H210.023C210.023 222.574 210.47 220.268 211.347 218.124L205.794 215.852ZM256.243 253.796L258.585 255.67L258.604 255.646L258.623 255.622L256.243 253.796ZM300.447 196.176L298.118 194.284L298.092 194.317L298.066 194.35L300.447 196.176ZM312.487 236.424H309.487V245.244L314.865 238.253L312.487 236.424ZM343.447 196.176L341.118 194.284L341.093 194.315L341.069 194.347L343.447 196.176ZM344.479 213.376H347.479V204.536L342.098 211.55L344.479 213.376ZM313.605 253.624L315.933 255.516L315.96 255.483L315.985 255.45L313.605 253.624ZM301.565 213.376H304.565V204.556L299.187 211.547L301.565 213.376ZM270.605 253.624L272.933 255.516L272.958 255.485L272.983 255.453L270.605 253.624ZM256.157 254.656L253.584 256.199L253.664 256.332L253.757 256.456L256.157 254.656ZM258.623 255.622L302.827 198.002L298.066 194.35L253.863 251.97L258.623 255.622ZM302.775 198.068C302.906 197.907 302.992 197.859 303.024 197.843C303.053 197.829 303.123 197.8 303.285 197.8V191.8C301.203 191.8 299.413 192.691 298.118 194.284L302.775 198.068ZM303.285 197.8H311.455V191.8H303.285V197.8ZM311.455 197.8C311.336 197.8 310.696 197.768 310.107 197.179C309.518 196.59 309.487 195.95 309.487 195.832H315.487C315.487 195.026 315.283 193.87 314.35 192.937C313.417 192.004 312.261 191.8 311.455 191.8V197.8ZM309.487 195.832V236.424H315.487V195.832H309.487ZM314.865 238.253L345.825 198.005L341.069 194.347L310.109 234.595L314.865 238.253ZM345.775 198.068C345.906 197.907 345.992 197.859 346.024 197.843C346.053 197.829 346.123 197.8 346.285 197.8V191.8C344.203 191.8 342.413 192.691 341.118 194.284L345.775 198.068ZM346.285 197.8H354.455V191.8H346.285V197.8ZM354.455 197.8C354.336 197.8 353.696 197.768 353.107 197.179C352.518 196.59 352.487 195.95 352.487 195.832H358.487C358.487 195.026 358.283 193.87 357.35 192.937C356.417 192.004 355.261 191.8 354.455 191.8V197.8ZM352.487 195.832V253.968H358.487V195.832H352.487ZM352.487 253.968C352.487 253.85 352.518 253.21 353.107 252.621C353.696 252.032 354.336 252 354.455 252V258C355.261 258 356.417 257.796 357.35 256.863C358.283 255.93 358.487 254.774 358.487 253.968H352.487ZM354.455 252H345.597V258H354.455V252ZM345.597 252C345.63 252 346.214 252.003 346.793 252.538C347.418 253.114 347.479 253.785 347.479 253.968H341.479C341.479 254.839 341.726 256.026 342.723 256.946C343.676 257.825 344.819 258 345.597 258V252ZM347.479 253.968V213.376H341.479V253.968H347.479ZM342.098 211.55L311.224 251.798L315.985 255.45L346.859 215.202L342.098 211.55ZM311.276 251.732C311.146 251.893 311.059 251.941 311.027 251.957C310.998 251.971 310.928 252 310.767 252V258C312.849 258 314.638 257.109 315.933 255.516L311.276 251.732ZM310.767 252H302.597V258H310.767V252ZM302.597 252C302.715 252 303.355 252.032 303.944 252.621C304.533 253.21 304.565 253.85 304.565 253.968H298.565C298.565 254.774 298.768 255.93 299.701 256.863C300.634 257.796 301.79 258 302.597 258V252ZM304.565 253.968V213.376H298.565V253.968H304.565ZM299.187 211.547L268.227 251.795L272.983 255.453L303.943 215.205L299.187 211.547ZM268.276 251.732C268.146 251.893 268.059 251.941 268.027 251.957C267.998 251.971 267.928 252 267.767 252V258C269.849 258 271.638 257.109 272.933 255.516L268.276 251.732ZM267.767 252H256.845V258H267.767V252ZM256.845 252C257.112 252 257.45 252.056 257.799 252.231C258.148 252.405 258.397 252.643 258.557 252.856L253.757 256.456C254.495 257.441 255.614 258 256.845 258V252ZM258.729 253.113C258.92 253.431 259.094 253.926 259.034 254.525C258.977 255.096 258.734 255.484 258.585 255.67L253.9 251.922C253.522 252.394 253.15 253.069 253.064 253.927C252.976 254.813 253.221 255.595 253.584 256.199L258.729 253.113ZM368.161 194.972L370.282 197.093L370.282 197.093L368.161 194.972ZM415.031 194.972L412.631 196.772L412.888 197.115L413.231 197.372L415.031 194.972ZM414.601 210.452L412.279 208.552L412.248 208.591L412.218 208.63L414.601 210.452ZM402.045 226.878L404.373 228.77L404.401 228.735L404.428 228.7L402.045 226.878ZM387.511 227.91L384.726 229.024L384.873 229.393L385.111 229.71L387.511 227.91ZM387.683 227.05L390.026 228.924L390.044 228.901L390.062 228.877L387.683 227.05ZM404.195 205.55L406.574 207.377L410.282 202.55H404.195V205.55ZM378.911 205.55V202.55H375.911V205.55H378.911ZM368.161 254.57L365.761 256.37L366.018 256.713L366.361 256.97L368.161 254.57ZM370.903 253.796V195.66H364.903V253.796H370.903ZM370.903 195.66C370.903 195.816 370.879 196.052 370.776 196.326C370.67 196.61 370.501 196.874 370.282 197.093L366.04 192.851C365.205 193.685 364.903 194.731 364.903 195.66H370.903ZM370.282 197.093C370.175 197.201 369.999 197.343 369.745 197.455C369.484 197.571 369.205 197.628 368.935 197.628V191.628C367.746 191.628 366.751 192.139 366.04 192.851L370.282 197.093ZM368.935 197.628H414.343V191.628H368.935V197.628ZM414.343 197.628C414.076 197.628 413.737 197.572 413.388 197.397C413.039 197.223 412.791 196.985 412.631 196.772L417.431 193.172C416.692 192.187 415.574 191.628 414.343 191.628V197.628ZM413.231 197.372C413.018 197.212 412.78 196.964 412.606 196.615C412.431 196.266 412.375 195.927 412.375 195.66H418.375C418.375 194.429 417.816 193.311 416.831 192.572L413.231 197.372ZM412.375 195.66V208.302H418.375V195.66H412.375ZM412.375 208.302C412.375 208.376 412.364 208.41 412.359 208.425C412.353 208.441 412.336 208.482 412.279 208.552L416.923 212.352C417.87 211.194 418.375 209.809 418.375 208.302H412.375ZM412.218 208.63L399.662 225.056L404.428 228.7L416.984 212.274L412.218 208.63ZM399.717 224.986C399.586 225.147 399.499 225.195 399.468 225.211C399.439 225.225 399.369 225.254 399.207 225.254V231.254C401.289 231.254 403.079 230.363 404.373 228.77L399.717 224.986ZM399.207 225.254H388.285V231.254H399.207V225.254ZM388.285 225.254C388.443 225.254 388.723 225.28 389.052 225.427C389.398 225.58 389.695 225.822 389.911 226.11L385.111 229.71C385.966 230.85 387.209 231.254 388.285 231.254V225.254ZM390.296 226.796C390.442 227.161 390.502 227.608 390.41 228.068C390.323 228.5 390.136 228.787 390.026 228.924L385.34 225.176C384.588 226.117 384.127 227.528 384.726 229.024L390.296 226.796ZM390.062 228.877L406.574 207.377L401.816 203.723L385.304 225.223L390.062 228.877ZM404.195 202.55H378.911V208.55H404.195V202.55ZM375.911 205.55V253.796H381.911V205.55H375.911ZM375.911 253.796C375.911 253.613 375.972 252.942 376.597 252.366C377.176 251.831 377.76 251.828 377.793 251.828V257.828C378.571 257.828 379.714 257.653 380.666 256.774C381.664 255.854 381.911 254.667 381.911 253.796H375.911ZM377.793 251.828H368.935V257.828H377.793V251.828ZM368.935 251.828C369.097 251.828 369.282 251.853 369.475 251.917C369.668 251.982 369.832 252.073 369.961 252.17L366.361 256.97C367.11 257.531 367.999 257.828 368.935 257.828V251.828ZM370.561 252.77C370.658 252.899 370.749 253.063 370.814 253.256C370.878 253.449 370.903 253.634 370.903 253.796H364.903C364.903 254.732 365.2 255.621 365.761 256.37L370.561 252.77ZM465.879 195.23L463.093 196.344L463.24 196.713L463.478 197.03L465.879 195.23ZM465.793 196.004L463.45 194.13L463.428 194.157L463.407 194.184L465.793 196.004ZM459.428 204.346L461.757 206.238L461.786 206.202L461.814 206.166L459.428 204.346ZM435.349 205.722V202.722H432.349V205.722H435.349ZM435.349 219.482H432.349V222.482H435.349V219.482ZM435.349 230.404V227.404H432.349V230.404H435.349ZM435.349 244.078H432.349V247.078H435.349V244.078ZM463.212 244.422L460.812 246.222L461.07 246.565L461.413 246.822L463.212 244.422ZM424.599 254.742L422.198 256.542L422.456 256.885L422.798 257.142L424.599 254.742ZM424.599 195.144L422.477 193.023V193.023L424.599 195.144ZM425.372 197.8H465.19V191.8H425.372V197.8ZM465.19 197.8C464.952 197.8 464.506 197.749 464.031 197.451C463.53 197.139 463.237 196.705 463.093 196.344L468.664 194.116C468.405 193.468 467.94 192.819 467.211 192.363C466.505 191.923 465.773 191.8 465.19 191.8V197.8ZM463.478 197.03C463.158 196.603 462.925 195.976 463.004 195.264C463.074 194.641 463.35 194.255 463.45 194.13L468.135 197.878C468.464 197.467 468.87 196.808 468.968 195.927C469.075 194.957 468.771 194.086 468.279 193.43L463.478 197.03ZM463.407 194.184L457.043 202.526L461.814 206.166L468.178 197.824L463.407 194.184ZM457.1 202.454C456.97 202.615 456.883 202.663 456.851 202.679C456.822 202.693 456.752 202.722 456.591 202.722V208.722C458.672 208.722 460.462 207.831 461.757 206.238L457.1 202.454ZM456.591 202.722H435.349V208.722H456.591V202.722ZM432.349 205.722V219.482H438.349V205.722H432.349ZM435.349 222.482H456.849V216.482H435.349V222.482ZM456.849 222.482C456.73 222.482 456.09 222.45 455.501 221.861C454.912 221.272 454.88 220.632 454.88 220.514H460.88C460.88 219.708 460.677 218.552 459.744 217.619C458.811 216.686 457.655 216.482 456.849 216.482V222.482ZM454.88 220.514V229.286H460.88V220.514H454.88ZM454.88 229.286C454.88 229.253 454.883 228.669 455.418 228.09C455.995 227.465 456.666 227.404 456.849 227.404V233.404C457.719 233.404 458.906 233.157 459.827 232.159C460.706 231.207 460.88 230.064 460.88 229.286H454.88ZM456.849 227.404H435.349V233.404H456.849V227.404ZM432.349 230.404V244.078H438.349V230.404H432.349ZM435.349 247.078H462.525V241.078H435.349V247.078ZM462.525 247.078C462.258 247.078 461.919 247.022 461.57 246.847C461.221 246.673 460.973 246.435 460.812 246.222L465.612 242.622C464.874 241.637 463.755 241.078 462.525 241.078V247.078ZM461.413 246.822C461.199 246.662 460.962 246.414 460.787 246.065C460.613 245.716 460.557 245.377 460.557 245.11H466.557C466.557 243.879 465.997 242.761 465.013 242.022L461.413 246.822ZM460.557 245.11V253.968H466.557V245.11H460.557ZM460.557 253.968C460.557 253.85 460.588 253.21 461.177 252.621C461.766 252.032 462.406 252 462.525 252V258C463.331 258 464.487 257.796 465.42 256.863C466.353 255.93 466.557 254.774 466.557 253.968H460.557ZM462.525 252H425.372V258H462.525V252ZM425.372 252C425.534 252 425.72 252.025 425.913 252.089C426.106 252.154 426.269 252.245 426.398 252.342L422.798 257.142C423.547 257.703 424.437 258 425.372 258V252ZM426.999 252.942C427.095 253.071 427.187 253.235 427.251 253.428C427.315 253.621 427.341 253.806 427.341 253.968H421.341C421.341 254.904 421.637 255.793 422.198 256.542L426.999 252.942ZM427.341 253.968V195.832H421.341V253.968H427.341ZM427.341 195.832C427.341 195.988 427.317 196.224 427.214 196.498C427.108 196.782 426.939 197.046 426.72 197.265L422.477 193.023C421.643 193.857 421.341 194.903 421.341 195.832H427.341ZM426.72 197.265C426.612 197.373 426.436 197.515 426.182 197.627C425.922 197.743 425.642 197.8 425.372 197.8V191.8C424.183 191.8 423.189 192.311 422.477 193.023L426.72 197.265ZM475.59 194.972L477.712 197.093V197.093L475.59 194.972ZM516.526 196.004L518.912 194.184L518.884 194.148L518.855 194.112L516.526 196.004ZM522.89 204.346L520.505 206.166L520.526 206.193L520.548 206.22L522.89 204.346ZM522.976 205.206L520.404 203.662L520.345 203.761L520.293 203.864L522.976 205.206ZM503.11 205.55V202.55H500.11V205.55H503.11ZM492.188 205.55H495.188V202.55H492.188V205.55ZM475.59 205.292L473.19 207.092L473.448 207.435L473.79 207.692L475.59 205.292ZM478.332 195.66C478.332 195.816 478.309 196.052 478.206 196.326C478.1 196.61 477.931 196.874 477.712 197.093L473.469 192.851C472.635 193.685 472.332 194.731 472.332 195.66H478.332ZM477.712 197.093C477.604 197.201 477.428 197.343 477.174 197.455C476.914 197.571 476.634 197.628 476.364 197.628V191.628C475.175 191.628 474.181 192.139 473.469 192.851L477.712 197.093ZM476.364 197.628H513.688V191.628H476.364V197.628ZM513.688 197.628C513.85 197.628 513.92 197.657 513.949 197.671C513.981 197.687 514.068 197.735 514.198 197.896L518.855 194.112C517.56 192.519 515.77 191.628 513.688 191.628V197.628ZM514.141 197.824L520.505 206.166L525.276 202.526L518.912 194.184L514.141 197.824ZM520.548 206.22C520.399 206.034 520.156 205.646 520.099 205.075C520.039 204.476 520.213 203.981 520.404 203.662L525.549 206.749C525.912 206.145 526.158 205.363 526.069 204.477C525.983 203.619 525.611 202.944 525.233 202.472L520.548 206.22ZM520.293 203.864C520.526 203.398 520.911 203.014 521.377 202.781C521.796 202.571 522.147 202.55 522.288 202.55V208.55C523.316 208.55 524.862 208.144 525.66 206.548L520.293 203.864ZM522.288 202.55H503.11V208.55H522.288V202.55ZM500.11 205.55V253.796H506.11V205.55H500.11ZM500.11 253.796C500.11 253.678 500.142 253.038 500.731 252.449C501.32 251.86 501.96 251.828 502.078 251.828V257.828C502.885 257.828 504.041 257.624 504.974 256.691C505.907 255.758 506.11 254.602 506.11 253.796H500.11ZM502.078 251.828H493.22V257.828H502.078V251.828ZM493.22 251.828C493.339 251.828 493.979 251.86 494.568 252.449C495.157 253.038 495.188 253.678 495.188 253.796H489.188C489.188 254.602 489.392 255.758 490.325 256.691C491.258 257.624 492.414 257.828 493.22 257.828V251.828ZM495.188 253.796V205.55H489.188V253.796H495.188ZM492.188 202.55H476.364V208.55H492.188V202.55ZM476.364 202.55C476.526 202.55 476.712 202.575 476.905 202.639C477.098 202.704 477.261 202.795 477.39 202.892L473.79 207.692C474.539 208.253 475.429 208.55 476.364 208.55V202.55ZM477.99 203.492C478.087 203.621 478.179 203.785 478.243 203.978C478.307 204.171 478.332 204.356 478.332 204.518H472.332C472.332 205.454 472.629 206.343 473.19 207.092L477.99 203.492ZM478.332 204.518V195.66H472.332V204.518H478.332ZM529.999 254.742L527.599 256.542L527.856 256.885L528.199 257.142L529.999 254.742ZM529.999 195.144L527.878 193.023V193.023L529.999 195.144ZM530.773 197.8H539.631V191.8H530.773V197.8ZM539.631 197.8C539.598 197.8 539.014 197.797 538.435 197.262C537.81 196.686 537.749 196.015 537.749 195.832H543.749C543.749 194.961 543.502 193.774 542.504 192.854C541.552 191.975 540.409 191.8 539.631 191.8V197.8ZM537.749 195.832V253.968H543.749V195.832H537.749ZM537.749 253.968C537.749 253.785 537.81 253.114 538.435 252.538C539.014 252.003 539.598 252 539.631 252V258C540.409 258 541.552 257.825 542.504 256.946C543.502 256.026 543.749 254.839 543.749 253.968H537.749ZM539.631 252H530.773V258H539.631V252ZM530.773 252C530.934 252 531.12 252.025 531.313 252.089C531.506 252.154 531.67 252.245 531.799 252.342L528.199 257.142C528.948 257.703 529.837 258 530.773 258V252ZM532.399 252.942C532.496 253.071 532.587 253.235 532.651 253.428C532.716 253.621 532.741 253.806 532.741 253.968H526.741C526.741 254.904 527.037 255.793 527.599 256.542L532.399 252.942ZM532.741 253.968V195.832H526.741V253.968H532.741ZM532.741 195.832C532.741 195.988 532.717 196.224 532.614 196.498C532.508 196.782 532.339 197.046 532.12 197.265L527.878 193.023C527.043 193.857 526.741 194.903 526.741 195.832H532.741ZM532.12 197.265C532.013 197.373 531.836 197.515 531.583 197.627C531.322 197.743 531.043 197.8 530.773 197.8V191.8C529.583 191.8 528.589 192.311 527.878 193.023L532.12 197.265ZM550.421 194.972L552.542 197.093V197.093L550.421 194.972ZM591.357 196.004L593.742 194.184L593.714 194.148L593.685 194.112L591.357 196.004ZM597.721 204.346L595.335 206.166L595.356 206.193L595.378 206.22L597.721 204.346ZM597.807 205.206L595.234 203.662L595.175 203.761L595.123 203.864L597.807 205.206ZM577.941 205.55V202.55H574.941V205.55H577.941ZM567.019 205.55H570.019V202.55H567.019V205.55ZM550.421 205.292L548.021 207.092L548.278 207.435L548.621 207.692L550.421 205.292ZM553.163 195.66C553.163 195.816 553.139 196.052 553.036 196.326C552.93 196.61 552.761 196.874 552.542 197.093L548.299 192.851C547.465 193.685 547.163 194.731 547.163 195.66H553.163ZM552.542 197.093C552.434 197.201 552.258 197.343 552.004 197.455C551.744 197.571 551.464 197.628 551.195 197.628V191.628C550.005 191.628 549.011 192.139 548.299 192.851L552.542 197.093ZM551.195 197.628H588.519V191.628H551.195V197.628ZM588.519 197.628C588.68 197.628 588.75 197.657 588.779 197.671C588.811 197.687 588.898 197.735 589.028 197.896L593.685 194.112C592.39 192.519 590.6 191.628 588.519 191.628V197.628ZM588.971 197.824L595.335 206.166L600.106 202.526L593.742 194.184L588.971 197.824ZM595.378 206.22C595.229 206.034 594.986 205.646 594.929 205.075C594.869 204.476 595.043 203.981 595.234 203.662L600.379 206.749C600.742 206.145 600.988 205.363 600.899 204.477C600.813 203.619 600.441 202.944 600.063 202.472L595.378 206.22ZM595.123 203.864C595.356 203.398 595.741 203.014 596.207 202.781C596.626 202.571 596.977 202.55 597.119 202.55V208.55C598.146 208.55 599.692 208.144 600.49 206.548L595.123 203.864ZM597.119 202.55H577.941V208.55H597.119V202.55ZM574.941 205.55V253.796H580.941V205.55H574.941ZM574.941 253.796C574.941 253.678 574.972 253.038 575.561 252.449C576.15 251.86 576.79 251.828 576.909 251.828V257.828C577.715 257.828 578.871 257.624 579.804 256.691C580.737 255.758 580.941 254.602 580.941 253.796H574.941ZM576.909 251.828H568.051V257.828H576.909V251.828ZM568.051 251.828C568.169 251.828 568.809 251.86 569.398 252.449C569.987 253.038 570.019 253.678 570.019 253.796H564.019C564.019 254.602 564.222 255.758 565.155 256.691C566.088 257.624 567.244 257.828 568.051 257.828V251.828ZM570.019 253.796V205.55H564.019V253.796H570.019ZM567.019 202.55H551.195V208.55H567.019V202.55ZM551.195 202.55C551.356 202.55 551.542 202.575 551.735 202.639C551.928 202.704 552.091 202.795 552.221 202.892L548.621 207.692C549.369 208.253 550.259 208.55 551.195 208.55V202.55ZM552.821 203.492C552.917 203.621 553.009 203.785 553.073 203.978C553.137 204.171 553.163 204.356 553.163 204.518H547.163C547.163 205.454 547.459 206.343 548.021 207.092L552.821 203.492ZM553.163 204.518V195.66H547.163V204.518H553.163ZM604.829 254.742L602.429 256.542L602.686 256.885L603.029 257.142L604.829 254.742ZM604.829 195.144L602.708 193.023V193.023L604.829 195.144ZM605.603 197.8H614.461V191.8H605.603V197.8ZM614.461 197.8C614.428 197.8 613.844 197.797 613.265 197.262C612.64 196.686 612.579 196.015 612.579 195.832H618.579C618.579 194.961 618.332 193.774 617.334 192.854C616.382 191.975 615.239 191.8 614.461 191.8V197.8ZM612.579 195.832V253.968H618.579V195.832H612.579ZM612.579 253.968C612.579 253.785 612.64 253.114 613.265 252.538C613.844 252.003 614.428 252 614.461 252V258C615.239 258 616.382 257.825 617.334 256.946C618.332 256.026 618.579 254.839 618.579 253.968H612.579ZM614.461 252H605.603V258H614.461V252ZM605.603 252C605.765 252 605.95 252.025 606.143 252.089C606.336 252.154 606.5 252.245 606.629 252.342L603.029 257.142C603.778 257.703 604.667 258 605.603 258V252ZM607.229 252.942C607.326 253.071 607.417 253.235 607.482 253.428C607.546 253.621 607.571 253.806 607.571 253.968H601.571C601.571 254.904 601.867 255.793 602.429 256.542L607.229 252.942ZM607.571 253.968V195.832H601.571V253.968H607.571ZM607.571 195.832C607.571 195.988 607.547 196.224 607.444 196.498C607.338 196.782 607.169 197.046 606.95 197.265L602.708 193.023C601.873 193.857 601.571 194.903 601.571 195.832H607.571ZM606.95 197.265C606.843 197.373 606.666 197.515 606.413 197.627C606.152 197.743 605.873 197.8 605.603 197.8V191.8C604.414 191.8 603.419 192.311 602.708 193.023L606.95 197.265ZM628.003 212.344L625.249 211.152L625.245 211.162L625.241 211.172L628.003 212.344ZM634.625 202.454L636.746 204.575V204.575L634.625 202.454ZM644.515 195.918L645.651 198.695L645.668 198.687L645.686 198.68L644.515 195.918ZM656.727 193.596L656.687 196.596L656.727 193.596ZM668.939 196.176L667.732 198.923L668.939 196.176ZM678.743 202.97L676.578 205.048L676.589 205.059L676.6 205.07L678.743 202.97ZM685.365 213.032L682.597 214.189L682.6 214.196L682.603 214.204L685.365 213.032ZM687.687 225.158L684.687 225.118V225.119L687.687 225.158ZM685.107 237.37L687.853 238.577L685.107 237.37ZM678.313 247.26L676.213 245.117L676.202 245.128L676.191 245.139L678.313 247.26ZM668.423 253.882L669.559 256.659L669.576 256.651L669.594 256.644L668.423 253.882ZM644.085 253.796L642.862 256.536L642.888 256.547L642.913 256.558L644.085 253.796ZM634.367 247.088L632.202 249.166L632.213 249.177L632.224 249.187L634.367 247.088ZM627.917 237.026L625.134 238.147L627.917 237.026ZM638.237 233.07L635.482 234.259V234.259L638.237 233.07ZM642.623 239.692L644.776 237.604L642.623 239.692ZM648.987 244.164L647.75 246.897L648.987 244.164ZM656.727 245.798V248.798H656.759L656.79 248.797L656.727 245.798ZM664.381 243.992L663.091 241.283L664.381 243.992ZM670.659 239.434L668.474 237.378L668.472 237.38L670.659 239.434ZM674.959 232.726L677.735 233.862L677.74 233.851L677.744 233.84L674.959 232.726ZM676.421 224.642H673.421V224.673L673.421 224.703L676.421 224.642ZM670.401 210.108L668.247 212.196L668.263 212.213L668.279 212.229L670.401 210.108ZM663.951 205.636L662.714 208.369L662.726 208.375L662.738 208.38L663.951 205.636ZM656.297 204.002V201.002H656.265L656.233 201.003L656.297 204.002ZM648.643 205.808L649.879 208.541L649.906 208.529L649.932 208.517L648.643 205.808ZM642.365 210.366L644.551 212.42L644.566 212.404L644.581 212.387L642.365 210.366ZM638.151 216.988L640.927 218.124V218.124L638.151 216.988ZM628.595 224.642C628.595 220.6 629.328 216.902 630.764 213.516L625.241 211.172C623.467 215.354 622.595 219.855 622.595 224.642H628.595ZM630.756 213.536C632.28 210.015 634.281 207.04 636.746 204.575L632.503 200.333C629.464 203.372 627.051 206.99 625.249 211.152L630.756 213.536ZM636.746 204.575C639.265 202.056 642.224 200.096 645.651 198.695L643.379 193.141C639.237 194.836 635.603 197.233 632.503 200.333L636.746 204.575ZM645.686 198.68C649.065 197.246 652.72 196.544 656.687 196.596L656.766 190.596C652.018 190.534 647.533 191.379 643.343 193.156L645.686 198.68ZM656.687 196.596C660.665 196.648 664.336 197.43 667.732 198.923L670.145 193.429C665.973 191.596 661.503 190.659 656.766 190.596L656.687 196.596ZM667.732 198.923C671.171 200.434 674.11 202.476 676.578 205.048L680.907 200.892C677.872 197.731 674.275 195.244 670.145 193.429L667.732 198.923ZM676.6 205.07C679.133 207.655 681.132 210.685 682.597 214.189L688.133 211.875C686.386 207.696 683.971 204.019 680.885 200.87L676.6 205.07ZM682.603 214.204C684.038 217.587 684.739 221.214 684.687 225.118L690.686 225.198C690.749 220.502 689.902 216.045 688.126 211.86L682.603 214.204ZM684.687 225.119C684.635 229.096 683.852 232.767 682.36 236.163L687.853 238.577C689.686 234.405 690.624 229.935 690.686 225.197L684.687 225.119ZM682.36 236.163C680.847 239.607 678.798 242.584 676.213 245.117L680.412 249.403C683.561 246.317 686.041 242.701 687.853 238.577L682.36 236.163ZM676.191 245.139C673.664 247.666 670.693 249.66 667.251 251.12L669.594 256.644C673.721 254.893 677.343 252.473 680.434 249.381L676.191 245.139ZM667.287 251.105C663.886 252.496 660.204 253.204 656.211 253.204V259.204C660.932 259.204 665.391 258.364 669.559 256.659L667.287 251.105ZM656.211 253.204C652.294 253.204 648.653 252.475 645.256 251.034L642.913 256.558C647.085 258.328 651.527 259.204 656.211 259.204V253.204ZM645.307 251.056C641.912 249.541 638.988 247.518 636.51 244.989L632.224 249.187C635.249 252.276 638.804 254.725 642.862 256.536L645.307 251.056ZM636.531 245.01C634.055 242.432 632.11 239.406 630.699 235.905L625.134 238.147C626.819 242.329 629.174 246.011 632.202 249.166L636.531 245.01ZM630.699 235.905C629.304 232.443 628.595 228.698 628.595 224.642H622.595C622.595 229.415 623.433 233.927 625.134 238.147L630.699 235.905ZM633.603 225.072C633.603 228.281 634.227 231.353 635.482 234.259L640.991 231.881C640.067 229.742 639.603 227.482 639.603 225.072H633.603ZM635.482 234.259C636.71 237.101 638.371 239.617 640.469 241.78L644.776 237.604C643.205 235.983 641.942 234.084 640.991 231.881L635.482 234.259ZM640.469 241.78C642.567 243.944 645 245.653 647.75 246.897L650.223 241.431C648.158 240.496 646.348 239.224 644.776 237.604L640.469 241.78ZM647.75 246.897C650.563 248.17 653.566 248.798 656.727 248.798V242.798C654.383 242.798 652.227 242.337 650.223 241.431L647.75 246.897ZM656.79 248.797C659.905 248.731 662.875 248.032 665.67 246.701L663.091 241.283C661.07 242.245 658.937 242.75 656.663 242.799L656.79 248.797ZM665.67 246.701C668.406 245.398 670.805 243.66 672.845 241.488L668.472 237.38C666.957 238.992 665.171 240.293 663.091 241.283L665.67 246.701ZM672.843 241.49C674.935 239.268 676.567 236.719 677.735 233.862L672.182 231.59C671.287 233.779 670.052 235.701 668.474 237.378L672.843 241.49ZM677.744 233.84C678.927 230.882 679.485 227.788 679.42 224.581L673.421 224.703C673.47 227.115 673.054 229.41 672.173 231.612L677.744 233.84ZM679.421 224.642C679.421 221.433 678.796 218.361 677.541 215.455L672.032 217.833C672.956 219.972 673.421 222.232 673.421 224.642H679.421ZM677.541 215.455C676.31 212.605 674.64 210.105 672.522 207.987L668.279 212.229C669.831 213.781 671.084 215.638 672.032 217.833L677.541 215.455ZM672.554 208.02C670.445 205.844 667.973 204.134 665.163 202.892L662.738 208.38C664.859 209.317 666.687 210.588 668.247 212.196L672.554 208.02ZM665.187 202.903C662.383 201.634 659.409 201.002 656.297 201.002V207.002C658.573 207.002 660.702 207.459 662.714 208.369L665.187 202.903ZM656.233 201.003C653.118 201.069 650.148 201.768 647.353 203.099L649.932 208.517C651.953 207.555 654.086 207.05 656.36 207.001L656.233 201.003ZM647.406 203.075C644.627 204.332 642.201 206.093 640.148 208.345L644.581 212.387C646.083 210.74 647.842 209.463 649.879 208.541L647.406 203.075ZM640.178 208.312C638.137 210.485 636.538 213.007 635.374 215.852L640.927 218.124C641.827 215.924 643.037 214.031 644.551 212.42L640.178 208.312ZM635.374 215.852C634.187 218.754 633.603 221.836 633.603 225.072H639.603C639.603 222.574 640.05 220.268 640.927 218.124L635.374 215.852ZM697.8 195.144L695.678 193.023V193.023L697.8 195.144ZM709.582 196.176L711.96 194.347L711.935 194.315L711.91 194.284L709.582 196.176ZM740.542 236.424L738.164 238.253L743.542 245.244V236.424H740.542ZM739.424 253.624L737.043 255.45L737.069 255.483L737.095 255.516L739.424 253.624ZM708.55 213.376L710.93 211.55L705.55 204.536V213.376H708.55ZM697.8 254.742L695.4 256.542L695.657 256.885L696 257.142L697.8 254.742ZM700.542 253.968V195.832H694.542V253.968H700.542ZM700.542 195.832C700.542 195.988 700.518 196.224 700.415 196.498C700.309 196.782 700.14 197.046 699.921 197.265L695.678 193.023C694.844 193.857 694.542 194.903 694.542 195.832H700.542ZM699.921 197.265C699.814 197.373 699.637 197.515 699.384 197.627C699.123 197.743 698.843 197.8 698.574 197.8V191.8C697.384 191.8 696.39 192.311 695.678 193.023L699.921 197.265ZM698.574 197.8H706.744V191.8H698.574V197.8ZM706.744 197.8C706.905 197.8 706.975 197.829 707.004 197.843C707.036 197.859 707.123 197.907 707.253 198.068L711.91 194.284C710.615 192.691 708.825 191.8 706.744 191.8V197.8ZM707.204 198.005L738.164 238.253L742.92 234.595L711.96 194.347L707.204 198.005ZM743.542 236.424V195.832H737.542V236.424H743.542ZM743.542 195.832C743.542 195.95 743.51 196.59 742.921 197.179C742.332 197.768 741.692 197.8 741.574 197.8V191.8C740.767 191.8 739.611 192.004 738.678 192.937C737.745 193.87 737.542 195.026 737.542 195.832H743.542ZM741.574 197.8H750.432V191.8H741.574V197.8ZM750.432 197.8C750.313 197.8 749.673 197.768 749.084 197.179C748.495 196.59 748.464 195.95 748.464 195.832H754.464C754.464 195.026 754.26 193.87 753.327 192.937C752.394 192.004 751.238 191.8 750.432 191.8V197.8ZM748.464 195.832V253.968H754.464V195.832H748.464ZM748.464 253.968C748.464 253.85 748.495 253.21 749.084 252.621C749.673 252.032 750.313 252 750.432 252V258C751.238 258 752.394 257.796 753.327 256.863C754.26 255.93 754.464 254.774 754.464 253.968H748.464ZM750.432 252H742.262V258H750.432V252ZM742.262 252C742.1 252 742.03 251.971 742.001 251.957C741.969 251.941 741.883 251.893 741.752 251.732L737.095 255.516C738.39 257.109 740.18 258 742.262 258V252ZM741.804 251.798L710.93 211.55L706.169 215.202L737.043 255.45L741.804 251.798ZM705.55 213.376V253.968H711.55V213.376H705.55ZM705.55 253.968C705.55 253.785 705.61 253.114 706.235 252.538C706.815 252.003 707.399 252 707.432 252V258C708.21 258 709.353 257.825 710.305 256.946C711.303 256.026 711.55 254.839 711.55 253.968H705.55ZM707.432 252H698.574V258H707.432V252ZM698.574 252C698.735 252 698.921 252.025 699.114 252.089C699.307 252.154 699.47 252.245 699.6 252.342L696 257.142C696.748 257.703 697.638 258 698.574 258V252ZM700.2 252.942C700.297 253.071 700.388 253.235 700.452 253.428C700.517 253.621 700.542 253.806 700.542 253.968H694.542C694.542 254.904 694.838 255.793 695.4 256.542L700.2 252.942Z" fill="#F7F7F7" mask="url(#path-2-outside-1_79_692)"/>
</svg>
