<svg width="208" height="208" viewBox="0 0 208 208" fill="none" xmlns="http://www.w3.org/2000/svg">
<g clip-path="url(#clip0_651_782)">
<mask id="mask0_651_782" style="mask-type:luminance" maskUnits="userSpaceOnUse" x="0" y="0" width="208" height="208">
<path d="M208 0H0V208H208V0Z" fill="white"/>
</mask>
<g mask="url(#mask0_651_782)">
<mask id="mask1_651_782" style="mask-type:luminance" maskUnits="userSpaceOnUse" x="0" y="0" width="208" height="208">
<path d="M208 0H0V208H208V0Z" fill="white"/>
</mask>
<g mask="url(#mask1_651_782)">
<path d="M104.169 15.1294C133.489 15.1294 162.819 15.1195 192.139 15.1395C200.409 15.1495 206.159 19.3494 207.989 26.5794C210.089 34.8794 204.469 43.4094 195.989 44.7194C194.559 44.9394 193.089 45.0294 191.639 45.0294C133.189 45.0394 74.7295 45.0495 16.2795 45.0395C7.79946 45.0395 2.09942 41.1195 0.109417 34.0095C-2.27058 25.4795 3.36944 16.7194 12.1294 15.4394C13.7494 15.1994 15.4194 15.1494 17.0594 15.1494C46.0994 15.1294 75.1294 15.1294 104.169 15.1294Z" fill="#F7F7F7"/>
<path d="M104.15 89.7193C133.47 89.7193 162.8 89.7093 192.12 89.7293C200.4 89.7393 206.14 93.9293 207.98 101.159C210.09 109.459 204.48 117.999 196 119.309C194.57 119.529 193.1 119.619 191.65 119.619C133.2 119.639 74.7395 119.639 16.2895 119.629C7.80953 119.629 2.10954 115.719 0.10954 108.609C-2.28046 100.089 3.35954 91.3094 12.1095 90.0294C13.7295 89.7894 15.3995 89.7393 17.0395 89.7393C46.0895 89.7093 75.1196 89.7193 104.15 89.7193Z" fill="#F7F7F7"/>
<path d="M148.721 194.21C134.161 194.21 119.611 194.25 105.051 194.19C96.1714 194.15 89.9714 188.72 89.1414 180.45C88.4114 173.16 93.7114 166.02 100.921 164.7C102.441 164.42 104.011 164.32 105.551 164.31C134.371 164.29 163.191 164.28 192.011 164.3C200.241 164.31 205.901 168.28 207.861 175.33C210.241 183.86 204.611 192.62 195.851 193.89C193.851 194.18 191.791 194.19 189.761 194.19C176.081 194.23 162.401 194.21 148.721 194.21Z" fill="#F7F7F7"/>
</g>
</g>
</g>
<defs>
<clipPath id="clip0_651_782">
<rect width="208" height="208" fill="white"/>
</clipPath>
</defs>
</svg>
