<svg width="68" height="68" viewBox="0 0 68 68" fill="none" xmlns="http://www.w3.org/2000/svg">
<circle cx="34" cy="34" r="33" stroke="#C4C4C4" stroke-width="2"/>
<path d="M50 52V48C50 45.8783 49.1571 43.8434 47.6569 42.3431C46.1566 40.8429 44.1217 40 42 40C39.8783 40 26 40 26 40C23.8783 40 21.8434 40.8429 20.3431 42.3431C18.8429 43.8434 18 45.8783 18 48V52" stroke="#C4C4C4" stroke-width="2" stroke-linecap="round" stroke-linejoin="round"/>
<path d="M34 32C38.4183 32 42 28.4183 42 24C42 19.5817 38.4183 16 34 16C29.5817 16 26 19.5817 26 24C26 28.4183 29.5817 32 34 32Z" stroke="#C4C4C4" stroke-width="2" stroke-linecap="round" stroke-linejoin="round"/>
</svg>
