<svg width="144" height="144" viewBox="0 0 144 144" fill="none" xmlns="http://www.w3.org/2000/svg">
<path d="M144 67.7688C144 70.5837 144 73.3986 144 76.2135C143.912 76.6182 143.789 77.0228 143.771 77.4275C143.261 84.8694 141.748 92.1177 138.739 98.9263C126.511 126.618 105.222 141.783 75.0299 143.842C60.8488 144.809 47.4419 141.326 35.3193 133.866C13.5022 120.425 1.69639 100.756 0.130489 75.1755C-0.66126 62.139 2.15384 49.7007 8.47024 38.2475C20.0826 17.2237 37.8177 4.71496 61.5526 0.809285C63.6287 0.475015 65.7049 0.263897 67.7986 0C70.6137 0 73.4288 0 76.2439 0C76.5958 0.0879658 76.9653 0.211117 77.3172 0.22871C87.5043 0.914843 97.1637 3.62419 106.066 8.58546C126.247 19.8451 138.616 36.8401 142.909 59.588C143.384 62.2974 143.631 65.0419 144 67.7688ZM72.0212 131.931C105.134 131.913 131.895 105.137 131.93 72.044C131.965 38.9336 105.081 12.0161 71.9685 12.0513C38.891 12.0689 12.0947 38.8457 12.0419 71.956C11.9891 105.049 38.891 131.949 72.0212 131.931Z" fill="white"/>
<path d="M60.1431 72.1318C60.1431 65.1473 60.1607 58.1628 60.1255 51.1783C60.1255 49.4718 60.4774 48.0115 62.1137 47.1671C63.7676 46.3226 65.1575 46.9384 66.5299 47.9412C76.0661 54.8905 85.6199 61.8222 95.1736 68.7715C97.9359 70.7771 97.9359 73.3809 95.156 75.4041C85.5671 82.371 75.9781 89.3379 66.3892 96.3048C65.052 97.29 63.6444 97.765 62.0785 96.9733C60.5126 96.164 60.1079 94.7566 60.1255 93.0852C60.1607 86.1007 60.1431 79.1162 60.1431 72.1318Z" fill="white"/>
</svg>
